<svg width="26" height="26" viewBox="0 0 26 26" fill="none" xmlns="http://www.w3.org/2000/svg">
<path fill-rule="evenodd" clip-rule="evenodd" d="M4.24744 5.44644C4.37249 5.13575 4.55929 4.85367 4.79654 4.61729C5.04208 4.37047 5.33693 4.17823 5.66183 4.05313C5.98673 3.92803 6.33437 3.87288 6.68204 3.89129C8.17604 3.96629 9.94154 3.28829 10.999 2.23079C11.4658 1.76501 12.0984 1.50343 12.7578 1.50343C13.4172 1.50343 14.0497 1.76501 14.5165 2.23079C15.574 3.28829 17.3395 3.96629 18.8335 3.89129C19.181 3.87309 19.5283 3.92834 19.8529 4.05344C20.1776 4.17853 20.4722 4.37066 20.7175 4.61729C20.9551 4.85355 21.1421 5.13557 21.2674 5.44626C21.3928 5.75695 21.4537 6.08985 21.4465 6.42479C21.43 7.24829 21.64 8.12279 21.946 8.88029C22.2505 9.63629 22.7035 10.4118 23.287 10.9953C23.7524 11.462 24.0137 12.0942 24.0137 12.7533C24.0137 13.4124 23.7524 14.0445 23.287 14.5113C22.2205 15.5793 21.4765 17.3223 21.4465 18.8313C21.435 19.4608 21.1845 20.0623 20.7458 20.5139C20.307 20.9654 19.7129 21.2332 19.084 21.2628C18.259 21.3033 17.3905 21.5538 16.6285 21.8913C15.8665 22.2303 15.1 22.7058 14.5165 23.2893C14.0497 23.7551 13.4172 24.0166 12.7578 24.0166C12.0984 24.0166 11.4658 23.7551 10.999 23.2893C10.4155 22.7058 9.64754 22.2303 8.88704 21.8928C8.12504 21.5538 7.25654 21.3033 6.43154 21.2628C5.80276 21.2328 5.20887 20.965 4.7702 20.5135C4.33153 20.062 4.08089 19.4607 4.06904 18.8313C4.03754 17.3223 3.29354 15.5793 2.22854 14.5128C1.76276 14.046 1.50118 13.4135 1.50118 12.754C1.50118 12.0946 1.76276 11.4621 2.22854 10.9953C2.81054 10.4118 3.26504 9.63629 3.56954 8.87879C3.87404 8.12279 4.08404 7.24979 4.06904 6.42479C4.0617 6.08996 4.12239 5.75713 4.24744 5.44644ZM1.16654 9.93329C1.97204 9.12929 2.59154 7.58879 2.56904 6.45179C2.55774 5.91496 2.65532 5.38141 2.8559 4.88333C3.05647 4.38526 3.35587 3.93298 3.73604 3.55379C4.12987 3.15894 4.60238 2.85138 5.12285 2.6511C5.64332 2.45082 6.20012 2.3623 6.75704 2.39129C7.82804 2.44529 9.18104 1.92629 9.93704 1.16729C10.6852 0.419847 11.6995 0 12.757 0C13.8146 0 14.8289 0.419847 15.577 1.16729C16.3345 1.92629 17.686 2.44529 18.757 2.39129C19.3142 2.36209 19.8713 2.4505 20.392 2.65079C20.9128 2.85108 21.3855 3.15875 21.7795 3.55379C22.1599 3.93315 22.4594 4.38568 22.66 4.88403C22.8606 5.38238 22.958 5.91621 22.9465 6.45329C22.9225 7.58879 23.5435 9.12929 24.3475 9.93329C25.0945 10.6814 25.5141 11.6954 25.5141 12.7525C25.5141 13.8097 25.0945 14.8237 24.3475 15.5718C23.554 16.3653 22.969 17.7393 22.945 18.8598C22.9256 19.8888 22.5078 20.8701 21.7795 21.5973C21.0807 22.2976 20.1458 22.7121 19.1575 22.7598C17.971 22.8198 16.417 23.5083 15.577 24.3498C14.8289 25.0968 13.815 25.5163 12.7578 25.5163C11.7006 25.5163 10.6866 25.0968 9.93854 24.3498C9.09854 23.5083 7.54454 22.8198 6.35804 22.7598C5.36982 22.7121 4.43491 22.2976 3.73604 21.5973C2.97854 20.8398 2.59004 19.8528 2.56904 18.8598C2.54654 17.7393 1.96154 16.3653 1.16654 15.5718C0.419557 14.8237 0 13.8097 0 12.7525C0 11.6954 0.419557 10.6814 1.16654 9.93329ZM16.946 8.35235C17.0321 8.40021 17.1079 8.46457 17.1692 8.54173C17.2304 8.61889 17.2758 8.70736 17.3028 8.80208C17.3298 8.89679 17.3379 8.99591 17.3266 9.09375C17.3154 9.1916 17.2849 9.28627 17.237 9.37235L13.0715 16.8723C13.0237 16.9584 12.9593 17.0342 12.8822 17.0955C12.805 17.1567 12.7165 17.2021 12.6218 17.2291C12.5271 17.2561 12.428 17.2642 12.3301 17.2529C12.2323 17.2417 12.1376 17.2112 12.0515 17.1633C11.9977 17.1334 11.9478 17.097 11.9031 17.055L7.78156 13.7587C7.70461 13.6972 7.64055 13.6211 7.59302 13.5348C7.54549 13.4485 7.51544 13.3536 7.50457 13.2557C7.49371 13.1578 7.50225 13.0587 7.5297 12.964C7.55715 12.8694 7.60297 12.7811 7.66456 12.7042V12.7027C7.78881 12.5477 7.96946 12.4484 8.16687 12.4265C8.36427 12.4045 8.56232 12.4618 8.71756 12.5857L12.1927 15.3653L15.926 8.64335C15.9739 8.55726 16.0383 8.48145 16.1154 8.42024C16.1926 8.35903 16.2811 8.31361 16.3758 8.28659C16.4705 8.25957 16.5696 8.25147 16.6674 8.26275C16.7653 8.27403 16.86 8.30448 16.946 8.35235Z" fill="black"/>
<path fill-rule="evenodd" clip-rule="evenodd" d="M4.24744 5.44644C4.37249 5.13575 4.55929 4.85367 4.79654 4.61729C5.04208 4.37047 5.33693 4.17823 5.66183 4.05313C5.98673 3.92803 6.33437 3.87288 6.68204 3.89129C8.17604 3.96629 9.94154 3.28829 10.999 2.23079C11.4658 1.76501 12.0984 1.50343 12.7578 1.50343C13.4172 1.50343 14.0497 1.76501 14.5165 2.23079C15.574 3.28829 17.3395 3.96629 18.8335 3.89129C19.181 3.87309 19.5283 3.92834 19.8529 4.05344C20.1776 4.17853 20.4722 4.37066 20.7175 4.61729C20.9551 4.85355 21.1421 5.13557 21.2674 5.44626C21.3928 5.75695 21.4537 6.08985 21.4465 6.42479C21.43 7.24829 21.64 8.12279 21.946 8.88029C22.2505 9.63629 22.7035 10.4118 23.287 10.9953C23.7524 11.462 24.0137 12.0942 24.0137 12.7533C24.0137 13.4124 23.7524 14.0445 23.287 14.5113C22.2205 15.5793 21.4765 17.3223 21.4465 18.8313C21.435 19.4608 21.1845 20.0623 20.7458 20.5139C20.307 20.9654 19.7129 21.2332 19.084 21.2628C18.259 21.3033 17.3905 21.5538 16.6285 21.8913C15.8665 22.2303 15.1 22.7058 14.5165 23.2893C14.0497 23.7551 13.4172 24.0166 12.7578 24.0166C12.0984 24.0166 11.4658 23.7551 10.999 23.2893C10.4155 22.7058 9.64754 22.2303 8.88704 21.8928C8.12504 21.5538 7.25654 21.3033 6.43154 21.2628C5.80276 21.2328 5.20887 20.965 4.7702 20.5135C4.33153 20.062 4.08089 19.4607 4.06904 18.8313C4.03754 17.3223 3.29354 15.5793 2.22854 14.5128C1.76276 14.046 1.50118 13.4135 1.50118 12.754C1.50118 12.0946 1.76276 11.4621 2.22854 10.9953C2.81054 10.4118 3.26504 9.63629 3.56954 8.87879C3.87404 8.12279 4.08404 7.24979 4.06904 6.42479C4.0617 6.08996 4.12239 5.75713 4.24744 5.44644ZM1.16654 9.93329C1.97204 9.12929 2.59154 7.58879 2.56904 6.45179C2.55774 5.91496 2.65532 5.38141 2.8559 4.88333C3.05647 4.38526 3.35587 3.93298 3.73604 3.55379C4.12987 3.15894 4.60238 2.85138 5.12285 2.6511C5.64332 2.45082 6.20012 2.3623 6.75704 2.39129C7.82804 2.44529 9.18104 1.92629 9.93704 1.16729C10.6852 0.419847 11.6995 0 12.757 0C13.8146 0 14.8289 0.419847 15.577 1.16729C16.3345 1.92629 17.686 2.44529 18.757 2.39129C19.3142 2.36209 19.8713 2.4505 20.392 2.65079C20.9128 2.85108 21.3855 3.15875 21.7795 3.55379C22.1599 3.93315 22.4594 4.38568 22.66 4.88403C22.8606 5.38238 22.958 5.91621 22.9465 6.45329C22.9225 7.58879 23.5435 9.12929 24.3475 9.93329C25.0945 10.6814 25.5141 11.6954 25.5141 12.7525C25.5141 13.8097 25.0945 14.8237 24.3475 15.5718C23.554 16.3653 22.969 17.7393 22.945 18.8598C22.9256 19.8888 22.5078 20.8701 21.7795 21.5973C21.0807 22.2976 20.1458 22.7121 19.1575 22.7598C17.971 22.8198 16.417 23.5083 15.577 24.3498C14.8289 25.0968 13.815 25.5163 12.7578 25.5163C11.7006 25.5163 10.6866 25.0968 9.93854 24.3498C9.09854 23.5083 7.54454 22.8198 6.35804 22.7598C5.36982 22.7121 4.43491 22.2976 3.73604 21.5973C2.97854 20.8398 2.59004 19.8528 2.56904 18.8598C2.54654 17.7393 1.96154 16.3653 1.16654 15.5718C0.419557 14.8237 0 13.8097 0 12.7525C0 11.6954 0.419557 10.6814 1.16654 9.93329ZM16.946 8.35235C17.0321 8.40021 17.1079 8.46457 17.1692 8.54173C17.2304 8.61889 17.2758 8.70736 17.3028 8.80208C17.3298 8.89679 17.3379 8.99591 17.3266 9.09375C17.3154 9.1916 17.2849 9.28627 17.237 9.37235L13.0715 16.8723C13.0237 16.9584 12.9593 17.0342 12.8822 17.0955C12.805 17.1567 12.7165 17.2021 12.6218 17.2291C12.5271 17.2561 12.428 17.2642 12.3301 17.2529C12.2323 17.2417 12.1376 17.2112 12.0515 17.1633C11.9977 17.1334 11.9478 17.097 11.9031 17.055L7.78156 13.7587C7.70461 13.6972 7.64055 13.6211 7.59302 13.5348C7.54549 13.4485 7.51544 13.3536 7.50457 13.2557C7.49371 13.1578 7.50225 13.0587 7.5297 12.964C7.55715 12.8694 7.60297 12.7811 7.66456 12.7042V12.7027C7.78881 12.5477 7.96946 12.4484 8.16687 12.4265C8.36427 12.4045 8.56232 12.4618 8.71756 12.5857L12.1927 15.3653L15.926 8.64335C15.9739 8.55726 16.0383 8.48145 16.1154 8.42024C16.1926 8.35903 16.2811 8.31361 16.3758 8.28659C16.4705 8.25957 16.5696 8.25147 16.6674 8.26275C16.7653 8.27403 16.86 8.30448 16.946 8.35235Z" fill="url(#paint0_linear_33_591)"/>
<defs>
<linearGradient id="paint0_linear_33_591" x1="-5.63837e-07" y1="1.13815" x2="27.875" y2="4.38224" gradientUnits="userSpaceOnUse">
<stop stop-color="#29E0FF"/>
<stop offset="1" stop-color="#1FB0FF"/>
</linearGradient>
</defs>
</svg>
