<svg width="40" height="37" viewBox="0 0 40 37" fill="none" xmlns="http://www.w3.org/2000/svg">
<path d="M15.4371 1.23064C10.6904 3.72571 1.6838 8.92883 1.22738 9.41567C0.710115 9.99378 0.679688 10.7241 0.679688 19.7611V29.4979L1.6838 30.3804C2.47492 31.1107 2.93133 31.2627 4.17886 31.2627H5.70025V24.1123C5.70025 17.3877 5.73067 16.9618 6.27837 16.6575C7.16077 16.2011 26.4519 16.2315 26.9387 16.7183C27.1822 16.9618 27.3039 18.6962 27.3039 22.4084C27.3039 27.7028 27.3342 27.7636 27.882 27.0334C28.3079 26.4857 28.4906 25.6032 28.5818 23.6255C28.6731 21.4042 28.8252 20.7956 29.4947 19.7611C29.9511 19.0917 30.8031 18.2702 31.3812 17.8746L32.4766 17.2052V13.919C32.4766 12.0021 32.3244 10.2677 32.1114 9.81121C31.8375 9.23311 29.7989 7.83344 24.9305 4.91239C17.8408 0.682946 17.0498 0.378669 15.4371 1.23064ZM20.336 10.146C20.6098 10.4807 20.6402 10.7545 20.3967 11.1197C20.1229 11.5456 19.5144 11.637 16.4716 11.637C13.2158 11.637 12.8507 11.5761 12.7595 11.0893C12.516 9.78084 12.8203 9.6591 16.4412 9.6591C19.2406 9.6591 20.0012 9.75036 20.336 10.146Z" fill="white"/>
<path d="M7.82812 25.0267V31.2644H16.5H25.1719V25.0267V18.7891H16.5H7.82812V25.0267Z" fill="white"/>
<path d="M31.9894 20.4291C30.9854 21.4331 30.9549 21.5245 30.9549 24.0804C30.9549 26.332 30.8637 26.8189 30.1942 27.7926C28.6729 30.0137 28.9467 32.7218 30.8332 34.517C31.9894 35.582 33.3891 35.9775 35.2452 35.7341C38.8357 35.2473 40.6614 30.6831 38.4401 27.7621C37.7403 26.8493 37.649 26.4841 37.649 24.1108C37.649 21.494 37.6186 21.4331 36.6144 20.4291C35.7625 19.5771 35.3365 19.3945 34.3019 19.3945C33.2674 19.3945 32.8414 19.5771 31.9894 20.4291ZM35.0322 22.0113C35.3973 22.3764 35.519 23.1371 35.519 25.2975C35.519 27.9143 35.5799 28.1577 36.2798 28.8271C37.3143 29.8008 37.3143 31.5047 36.3102 32.6914C35.7321 33.3608 35.3365 33.5433 34.3019 33.5433C31.8373 33.5433 30.6811 30.8353 32.3242 28.888C33.024 28.0664 33.0848 27.7317 33.0848 25.2366C33.0848 23.1371 33.2065 22.3764 33.5717 22.0113C33.8151 21.7374 34.1498 21.5245 34.3019 21.5245C34.4541 21.5245 34.7888 21.7374 35.0322 22.0113Z" fill="white"/>
</svg>
