<svg width="47" height="27" viewBox="0 0 47 27" fill="none" xmlns="http://www.w3.org/2000/svg">
<path d="M0 8.81058V17.6212H15.7332H31.4663V8.81058V0H15.7332H0V8.81058ZM29.8481 8.63077V15.8231H15.6433H1.43846V8.63077V1.43843H15.6433H29.8481V8.63077Z" fill="white"/>
<path d="M15.4629 8.62958V15.4623H22.4754H29.4879V8.62958V1.79688H22.4754H15.4629V8.62958Z" fill="white"/>
<path d="M32.8683 12.1732L32.8144 18.9699L18.2859 19.0239L3.77539 19.0599V20.5883V22.1166H5.39366H7.01193V22.7819C7.01193 24.9936 9.40338 26.7197 11.5611 26.0724C12.9636 25.6588 14.2042 23.9866 14.2042 22.5122C14.2042 22.1346 14.2582 22.1166 16.0023 22.1166H17.8004V22.8359C17.8004 24.6339 19.4726 26.2522 21.3066 26.2522C23.1407 26.2522 24.8129 24.6339 24.8129 22.8359V22.1166H29.1282H33.4436V22.5122C33.4436 23.9507 34.5225 25.479 35.889 26.0005C38.0287 26.8096 40.3662 25.3172 40.6 22.9977L40.6899 22.1166H43.3511H46.0302V17.3697V12.6408L44.4299 9.06256L42.8297 5.48444L37.8669 5.43044L32.9043 5.39453L32.8683 12.1732ZM42.6318 9.88973C43.2072 11.2203 43.6927 12.3711 43.6927 12.461C43.6927 12.5329 41.7688 12.5689 39.4313 12.5509L35.1519 12.4969L35.0979 10.1774C35.0799 8.88275 35.0979 7.73204 35.1339 7.60613C35.2058 7.40832 35.907 7.37241 38.4064 7.40832L41.5709 7.46231L42.6318 9.88973ZM11.5072 21.6671C12.5321 22.746 11.5072 24.3822 10.1046 23.8967C9.15166 23.5731 8.88194 22.3863 9.6191 21.6671C10.1946 21.0737 10.9497 21.0737 11.5072 21.6671ZM22.1877 21.5952C22.9968 22.2245 22.7811 23.5011 21.7742 23.8967C20.3897 24.4901 19.2389 22.5302 20.4256 21.5952C20.6953 21.3795 21.0908 21.2175 21.3066 21.2175C21.5224 21.2175 21.918 21.3795 22.1877 21.5952ZM38.0287 21.6671C38.766 22.3863 38.4963 23.5731 37.5433 23.8967C36.1408 24.3822 35.1159 22.746 36.1408 21.6671C36.6982 21.0737 37.4534 21.0737 38.0287 21.6671Z" fill="white"/>
</svg>
