<svg width="48" height="48" viewBox="0 0 48 48" fill="none" xmlns="http://www.w3.org/2000/svg">
<path d="M1.66543 8.06191C1.33481 8.39252 1.22461 11.2211 1.22461 18.5313V28.5598H15.5511H29.8777V18.5313C29.8777 11.2211 29.7675 8.39252 29.4369 8.06191C29.143 7.76803 27.4899 7.62109 24.4777 7.62109H19.9593V11.9558C19.9593 14.8211 19.8124 16.4374 19.5185 16.7313C18.9307 17.319 12.9062 17.319 12.3185 16.7313C12.0246 16.4374 11.8777 14.8211 11.8777 11.9558V7.62109H6.99196C3.68583 7.62109 1.9593 7.76803 1.66543 8.06191Z" fill="white"/>
<path d="M13.3477 11.6619V15.7027H15.9191H18.4905V11.6619V7.62109H15.9191H13.3477V11.6619Z" fill="white"/>
<path d="M31.3477 24.7041V35.9082H32.266C32.8538 35.9082 33.1844 35.6878 33.1844 35.3204C33.1844 33.0796 36.2334 30.398 38.7313 30.398C41.2293 30.398 44.2048 32.9327 44.2048 35.0265C44.2048 35.6878 44.4252 35.9082 45.0497 35.9082C46.6293 35.9082 46.7762 35.3571 46.7762 29.2959V23.5653L44.9028 19.1571C43.8742 16.7694 42.7721 14.4918 42.4415 14.1245C41.964 13.5735 41.1926 13.5 36.6007 13.5H31.3477V24.7041ZM40.3844 16.3653C40.9721 16.7694 43.4701 22.8306 43.1395 23.1612C42.9926 23.3082 40.7885 23.3816 38.2905 23.3449L33.7354 23.2347L33.6252 20.149C33.5517 18.4592 33.5885 16.8429 33.6987 16.549C33.8456 16.2184 34.7272 16.0714 36.9313 16.0714C38.6211 16.0714 40.164 16.2184 40.3844 16.3653Z" fill="white"/>
<path d="M1.22461 32.2721C1.22461 35.5782 1.51849 35.9088 4.34706 35.9088C6.294 35.9088 6.73481 35.7986 6.73481 35.321C6.73481 33.1904 9.894 30.3986 12.3185 30.3986C14.7797 30.3986 17.7552 32.9333 17.7552 35.0272V35.9088H23.8164H29.8777V32.97V30.0312H15.5511H1.22461V32.2721Z" fill="white"/>
<path d="M10.3337 32.4164C9.08476 33.1144 8.20312 34.7307 8.20312 36.3103C8.20312 37.1185 8.57047 37.8164 9.4521 38.6981C10.5174 39.7634 10.9582 39.947 12.4276 39.947C13.897 39.947 14.3011 39.7634 15.2195 38.8083C17.497 36.3838 16.0644 32.3797 12.795 32.0124C11.8766 31.9022 10.9582 32.0491 10.3337 32.4164ZM13.9337 34.9879C15.1827 36.8981 12.795 39.0654 11.1419 37.5593C10.3337 36.8246 10.1868 35.1715 10.848 34.5103C11.6195 33.7389 13.2725 33.996 13.9337 34.9879Z" fill="white"/>
<path d="M36.562 32.5622C34.2845 34.0316 33.9906 36.7867 35.9008 38.6969C36.9294 39.7255 37.4069 39.9459 38.7661 39.9459C41.2273 39.9091 42.7335 38.3296 42.7335 35.7581C42.7335 32.7826 39.1702 30.9459 36.562 32.5622ZM40.309 34.8765C41.0804 35.9785 41.0437 36.4928 40.162 37.3744C39.2804 38.2561 38.2151 38.3296 37.4437 37.5214C36.7457 36.8602 36.6722 35.1336 37.2967 34.5091C38.0314 33.7744 39.6845 33.9949 40.309 34.8765Z" fill="white"/>
</svg>
