<svg width="49" height="121" viewBox="0 0 49 121" fill="none" xmlns="http://www.w3.org/2000/svg">
<mask id="mask0_33_272" style="mask-type:luminance" maskUnits="userSpaceOnUse" x="0" y="0" width="49" height="121">
<path d="M49 0.28125H0V120.281H49V0.28125Z" fill="white"/>
</mask>
<g mask="url(#mask0_33_272)">
<path d="M17.1118 38.2425C16.6342 37.9081 17.4244 38.2232 15.6303 37.2249C13.8361 36.2261 12.7765 37.1397 12.7765 37.1397C10.5253 38.7621 9.23136 43.0191 11.4446 44.821C11.7645 45.0815 12.6071 42.8852 13.0258 41.484L14.3262 42.5654C16.0175 43.2672 17.4422 42.6856 17.4422 42.6856L18.7862 40.4868C18.7862 40.4868 17.9992 38.8653 17.1118 38.2425Z" fill="#FCE0D3"/>
<path d="M11.3594 45.6864L11.3618 45.6876C11.361 45.7029 11.3646 45.719 11.3783 45.736C11.4134 45.7824 11.4897 45.8154 11.5469 45.807C11.5712 45.8045 11.5861 45.794 11.5957 45.7811L12.419 45.0644L11.3646 44.5977L11.3594 45.6864Z" fill="#662E18"/>
<path d="M11.3594 45.6864L11.3618 45.6876C11.361 45.7029 11.3646 45.719 11.3783 45.736C11.4134 45.7824 11.4897 45.8154 11.5469 45.807C11.5712 45.8045 11.5861 45.794 11.5957 45.7811L12.419 45.0644L11.3646 44.5977L11.3594 45.6864Z" fill="#DA4526"/>
<path d="M12.4185 45.0644L11.3642 44.5977L11.3613 45.2043C11.5114 45.3524 11.7453 45.4548 11.9579 45.4653L12.4185 45.0644Z" fill="#662E18"/>
<path d="M11.3778 44.528C11.3427 44.6099 11.3633 44.714 11.4447 44.8217C11.6077 45.0359 11.955 45.1815 12.222 45.1468C12.3539 45.1298 12.4414 45.071 12.4749 44.9903L17.2015 33.8099C17.168 33.891 17.0801 33.9491 16.9482 33.9664C16.6812 34.0011 16.3339 33.8547 16.1709 33.6417C16.0886 33.5332 16.0701 33.4287 16.1044 33.3477L11.3778 44.528Z" fill="#EE6223"/>
<path d="M16.1712 33.64C16.0086 33.4254 16.0909 33.2232 16.3587 33.1886C16.6241 33.1543 16.971 33.2996 17.134 33.5146C17.297 33.7288 17.2139 33.9304 16.9484 33.9647C16.6814 33.9998 16.3341 33.8534 16.1712 33.64Z" fill="#BD693F"/>
<path d="M15.6935 34.0079C15.6516 34.1051 15.6758 34.2305 15.7738 34.3592C15.9686 34.6157 16.3833 34.79 16.7003 34.7484C16.8576 34.7283 16.9609 34.6585 17.0016 34.5625L17.2796 33.905C17.2384 34.0022 17.1348 34.0716 16.9782 34.0918C16.6604 34.1333 16.2466 33.959 16.0513 33.7025C15.9533 33.5742 15.9299 33.4496 15.9715 33.3516L15.6935 34.0079Z" fill="#A0AEBF"/>
<path d="M16.0526 33.7039C15.8581 33.4482 15.9578 33.2078 16.274 33.1662C16.5906 33.1251 17.0057 33.2994 17.1997 33.5551C17.3941 33.8112 17.2953 34.0516 16.9795 34.0932C16.662 34.1343 16.2482 33.9605 16.0526 33.7039Z" fill="#7B8693"/>
<path d="M16.068 33.3498C16.0317 33.4357 16.0518 33.5458 16.1385 33.658C16.3096 33.8838 16.6738 34.0363 16.9509 34C17.0897 33.9823 17.1804 33.9209 17.2171 33.8362L17.4604 33.2598C17.4245 33.3441 17.3337 33.4059 17.195 33.4236C16.9174 33.4603 16.5528 33.3078 16.3818 33.082C16.2963 32.969 16.2757 32.8593 16.3116 32.7734L16.068 33.3498Z" fill="#F495B5"/>
<path d="M16.3823 33.0828C16.2113 32.8581 16.2992 32.6476 16.5775 32.6109C16.8558 32.5742 17.2197 32.7274 17.3891 32.9521C17.5609 33.1772 17.4742 33.3881 17.1955 33.424C16.9184 33.4612 16.5533 33.3087 16.3823 33.0828Z" fill="#FAD1E2"/>
<path opacity="0.15" d="M18.4963 115.493C30.3302 114.835 31.6451 114.313 31.6451 116.588C31.6451 119.809 32.4684 120.726 39.096 120.094C43.698 119.656 45.6704 115.47 45.6704 111.329C45.6704 107.192 41.9462 105.504 30.0704 105.504C17.5601 105.504 13.6677 108.388 11.7029 111.11C10.2444 113.13 16.4892 115.604 18.4963 115.493Z" fill="#010101"/>
<path d="M43.6857 107.881C43.6857 107.881 43.6579 112.636 43.6599 112.733C43.6946 114.601 42.7738 118.374 38.4449 118.374C34.8828 118.374 36.671 118.374 36.671 118.374C36.671 118.374 33.7103 118.047 34.4234 113.88C34.6755 112.426 35.5471 107.477 35.5471 107.477L43.6857 107.881Z" fill="#393837"/>
<path d="M43.6856 106.84C43.6856 106.84 43.7816 106.731 43.6598 112.052C43.6163 113.922 42.743 117.03 38.4992 117.03C36.7825 117.03 36.3428 117.067 36.2985 117.067C35.0489 117.03 34.1348 115.752 34.5083 113.092C34.6733 111.937 35.7967 106.853 35.8786 106.853L43.6856 106.84Z" fill="#555555"/>
<path d="M23.0342 105.316L21.5495 106.683C21.5495 106.683 15.2723 109.793 14.8412 110.023C14.347 110.28 13.2664 110.738 13.4189 111.647C13.4548 111.861 13.4492 112.002 13.5927 112.193C14.1119 112.878 15.1267 113.155 16.065 113.29C18.1173 113.583 22.3925 112.84 22.3925 112.84C23.6405 112.657 25.7053 111.987 25.93 111.797C25.93 111.797 27.0005 111.459 27.2006 111.819C27.2723 111.953 27.1776 112.57 27.1659 112.696L29.8131 111.549C29.9454 111.479 30.1649 110.194 30.2141 109.62L30.0648 105.881L23.0342 105.316Z" fill="#555555"/>
<path d="M14.8917 112.676C15.4334 112.917 16.1889 113.021 16.9343 113.086C19.9204 113.332 24.3989 112.197 24.3989 112.197C24.8398 112.085 26.5247 111.627 26.5247 111.627C26.5247 111.627 27.2144 111.665 27.2003 111.82C27.1979 111.742 27.1906 111.817 27.2281 111.823C27.2963 111.844 27.1656 112.697 27.1656 112.697L26.4371 112.267C26.4371 112.267 24.3864 112.775 24.023 112.901C24.023 112.901 19.7143 113.977 16.7088 113.766C15.7618 113.698 14.1439 113.197 13.5586 112.349C13.4541 112.201 13.3311 111.828 13.4372 111.566C13.4489 111.608 14.1632 112.351 14.8917 112.676Z" fill="#282827"/>
<path d="M27.2002 111.819L30.0898 110.449C30.0898 110.449 29.8797 111.569 29.841 111.555L27.1953 112.699C27.1993 112.61 27.1961 112.061 27.2002 111.819Z" fill="#282827"/>
<path d="M24.9274 61.0365L21.4411 105.305C21.2895 106.901 21.0753 107.228 21.5541 107.75C23.3547 109.697 29.2433 112.475 30.1973 109.07L36.7402 57.1094L24.9274 61.0365Z" fill="#094D73"/>
<path d="M32.2695 57.2969L34.6748 105.867L34.7865 109.247C34.8038 110.398 36.3084 111.631 38.2235 111.966C40.5848 112.378 41.8816 111.746 41.8816 111.746C43.4374 111.301 44.1453 109.595 44.1852 109.192L44.7483 84.7521L45.4857 59.3319L32.2695 57.2969Z" fill="#0462A4"/>
<path d="M15.9226 38.035C15.4107 38.803 15.1683 39.5157 14.1067 40.7448C13.8796 41.0086 12.0822 41.2748 11.3356 41.7742C10.5365 42.2901 11.0008 43.1153 11.2356 43.244C11.4219 43.3493 14.3701 42.4768 15.1171 42.286C17.6159 41.6427 17.2501 40.3608 17.2477 39.385C17.2674 38.3984 16.5176 37.1432 15.9226 38.035Z" fill="#FEE7D9"/>
<path d="M30.5682 24.0354C33.9596 25.1483 32.1022 30.8107 32.1022 30.8107C32.1022 30.8107 32.946 49.0314 28.5897 49.5295C26.3321 49.7877 18.9824 44.6601 15.4635 43.2338C13.3341 42.3702 17.9934 40.2252 17.9934 40.2252C18.8755 40.5999 23.4856 41.5232 25.9727 42.4295C26.347 42.5663 26.5446 29.282 26.7564 28.6386C27.6652 25.803 28.5086 23.3598 30.5682 24.0354Z" fill="#FCE0D3"/>
<path d="M28.1833 22.9022C27.1555 22.6444 24.6434 24.9864 23.7237 28.4343C23.5749 28.9913 22.9981 34.1935 22.6411 39.1694C22.5758 40.0951 28.9263 39.4041 29.0897 40.3496C31.3255 34.9329 31.7022 30.2131 31.7022 30.2131C31.7022 30.2131 32.0653 23.8771 28.1833 22.9022Z" fill="#1872A3"/>
<path d="M22.2051 40.6907C22.2204 41.2744 23.9379 42.4699 25.6562 42.5768C27.8892 42.7144 28.9243 42.2541 28.9243 42.2541C29.9424 41.8681 30.5982 41.687 30.8709 40.9053C30.8709 40.9053 31.513 39.1184 31.7422 38.302C32.0806 37.0992 31.5901 36.668 31.5901 36.668C31.5901 36.668 31.3271 37.0911 30.9826 37.3101C30.2328 37.7877 29.4188 37.7502 27.2366 37.8906C23.8024 38.108 22.9666 37.0854 22.9666 37.0854C22.4628 37.098 22.3099 37.3319 22.3523 37.9067L22.2051 40.6907Z" fill="#08678A"/>
<path d="M26.6504 23.5972C24.484 26.9177 23.9673 29.2729 23.9023 36.2874L24.2165 59.1075C24.2081 60.0498 24.2883 61.1699 25.2943 61.9641C25.2943 61.9641 32.0861 66.049 35.7741 65.6472C38.1277 65.3887 44.0365 63.2097 44.0365 63.2097C45.5269 62.9629 45.5048 60.7044 45.4543 61.0336L45.9009 30.7383C46.0074 28.546 39.1663 24.245 39.1663 24.245L33.5858 22.8711C33.5858 22.8711 27.0913 22.9208 26.6504 23.5972Z" fill="#DCDBDB"/>
<path d="M42.657 26.7356C42.3706 26.5863 40.7168 25.3097 40.7168 25.3097C40.7168 25.3097 40.8157 25.663 40.5551 26.3011C40.2828 26.9683 38.9574 28.061 38.4851 28.6971C37.9179 29.4619 36.5162 30.816 34.9322 33.3971C34.9101 33.4334 34.5942 33.725 34.5789 33.7641C33.5463 36.319 31.9151 40.1772 30.6643 42.0012C30.2375 40.3744 29.3864 37.6348 28.6733 34.3389C27.754 30.0907 26.5101 26.8106 26.6532 25.3754C26.8465 23.4377 27.4575 23.0488 27.4358 22.9883C25.8465 23.4433 23.5599 27.0925 23.6264 35.3772L24.1802 60.2634C24.1714 61.2056 25.0337 62.5613 26.0393 63.356C26.0393 63.356 32.9965 66.3263 36.6848 65.9246C39.0385 65.6664 45.9182 63.2809 45.9182 63.2809C47.4082 63.0337 47.3082 61.6392 47.336 61.1048L47.2808 31.4105C47.0073 30.0415 44.3253 28.0719 42.657 26.7356Z" fill="#1A76B3"/>
<path d="M47.3261 61.1617L47.337 60.6179C43.9378 62.3725 40.0756 63.9089 36.4772 64.0695C33.1491 64.2175 27.0955 62.7162 24.1836 60.5586C24.2001 61.4319 25.1384 62.6421 26.0407 63.3548C26.0407 63.3548 32.9979 66.3251 36.6862 65.9233C39.0398 65.6652 46.0288 63.2797 46.0288 63.2797C47.5189 63.0328 47.3095 61.4534 47.3261 61.1617Z" fill="#318ECD"/>
<path d="M29.8798 21.654L30.336 17.0069L37.4246 14.5391L37.446 21.1982C37.446 21.1982 37.536 22.7168 38.646 23.8317C38.7073 23.9459 39.0074 25.2685 36.4796 27.6221C35.0109 28.9919 31.346 30.0124 31.346 30.0124C31.346 30.0124 29.8822 28.6846 29.353 27.9041C28.3998 26.5064 27.9291 23.8003 29.8798 21.654Z" fill="#E8C6AD"/>
<path d="M31.2068 29.8075C31.6441 30.0616 31.4065 30.5351 31.2387 30.8598L30.1896 32.8843C29.8491 33.493 29.5712 32.9025 29.4772 32.3265C29.4772 32.3265 28.412 28.1654 28.1679 26.42C27.8101 23.8603 28.4612 22.645 28.4612 22.645C28.4612 22.645 29.5325 22.5712 29.1118 23.033C28.7911 23.3856 28.7855 24.0781 28.7988 24.3282C28.8472 25.2386 29.7209 28.9423 31.2068 29.8075Z" fill="#F3F3F3"/>
<path d="M38.2093 23.2386C38.2093 23.2386 38.0019 24.6088 37.3348 25.4656C35.6306 27.6506 31.7192 29.7497 31.7192 29.7497C31.3053 29.9767 31.3541 30.1889 31.5308 30.9202L32.3524 33.5679C32.5259 34.2701 32.8857 34.1451 33.1261 33.8099C33.1261 33.8099 35.6322 30.9299 36.3167 29.9852C37.9241 27.7623 39.6731 25.5995 38.9353 24.226C38.1967 22.8481 38.2093 23.2386 38.2093 23.2386Z" fill="#F3F3F3"/>
<path d="M31.2006 6.37822L37.2684 6.45768L37.2575 17.4033C37.1696 18.1531 37.1958 18.8316 37.0659 19.4669C36.9171 20.157 36.6004 20.8085 35.7433 21.4413C35.7433 21.4413 34.5772 22.1601 33.2207 22.8866C32.6677 23.1855 30.9384 24.2161 29.6792 23.7486C29.204 23.5747 28.2791 23.0592 28.2791 23.0592C27.4421 22.5461 27.0238 22.1513 26.6709 21.0803C26.2038 19.6936 25.6326 18.164 25.583 17.5336L25.2305 8.84517L26.8459 5.63281L31.2006 6.37822Z" fill="#FEE0CD"/>
<path d="M25.1874 7.71253C25.0027 8.68584 25.108 10.1993 25.1774 10.1985C25.1774 10.1985 26.2213 6.72188 27.6899 8.06951C29.115 9.36389 30.6828 10.3158 31.5291 10.3352C32.3725 10.3529 31.878 9.45344 32.0635 9.50063C33.9694 9.96853 34.2247 12.2943 34.1638 13.2499L34.1542 14.2058C34.1493 14.7036 34.0614 15.2719 34.5446 15.2195C35.0686 15.165 35.0254 14.9674 35.1739 14.4418C35.1739 14.4418 35.6377 12.204 37.2512 12.9381C38.3269 13.4274 37.5259 15.8382 37.4545 15.9754L37.0386 19.5617C37.4904 19.6996 38.3878 18.1015 38.9521 17.2565C40.3599 15.184 40.8189 13.8198 41.1226 13.1313C42.6449 9.57203 42.0052 5.75905 39.8077 3.50668C39.1232 2.79595 38.0777 2.38049 36.4049 1.57337C35.3187 1.0502 29.1626 1.10264 27.4088 2.79797C26.6109 3.56961 25.8768 4.0855 25.1874 7.71253Z" fill="#633C16"/>
<path d="M37.1526 12.5508C35.5662 12.5403 35.377 14.5026 35.377 14.5026L35.3613 17.1894C35.3613 17.1894 35.4258 17.878 36.0103 18.0026C36.9069 18.1962 37.3022 17.4197 37.704 16.565C37.733 16.5178 38.2566 15.2517 38.2832 15.1783C38.7265 14.1094 38.6321 12.5673 37.1526 12.5508Z" fill="#FEE7D9"/>
<path d="M31.9631 64.3542L31.087 64.3832C31.0829 64.2913 30.7804 55.17 30.6183 51.1606C30.415 46.1202 30.2722 41.7901 30.2883 41.3242L30.9769 41.5574C30.9769 41.5574 31.2911 46.0815 31.4948 51.1255C31.6577 55.1378 31.959 64.263 31.9631 64.3542Z" fill="#318ECD"/>
<path d="M40.5395 43.7795C41.0255 43.959 41.3813 44.3874 41.4684 44.8977L41.3672 51.1796C41.4289 51.5483 41.0703 51.8464 40.7181 51.7177L34.9489 51.3607C34.4628 51.182 34.107 50.7537 34.0199 50.2422L33.9271 43.7953C33.8646 43.4262 34.2232 43.1281 34.5753 43.2572L40.5395 43.7795Z" fill="#318ECD"/>
<path d="M41.4379 46.8423L41.4698 44.8973C41.3827 44.387 41.0269 43.9587 40.5409 43.7792L34.5768 43.2572C34.2246 43.1281 33.8656 43.4262 33.9286 43.7953L33.5442 45.7032C33.4913 45.9625 33.6773 46.209 33.9411 46.2308L41.4379 46.8423Z" fill="#359DD8"/>
<path d="M39.3349 24.367C39.3975 24.2533 40.0005 24.1331 40.1021 24.2138L43.5134 26.9187C43.6178 27.0018 43.6275 27.1555 43.5356 27.2519L36.4469 34.6084C36.346 34.7129 36.1863 34.7342 36.0617 34.6592L34.5781 33.7646L39.5923 24.5728L39.3349 24.367Z" fill="#318ECD"/>
<path d="M30.6641 42.003L35.5021 35.905C35.5976 35.7848 35.6235 35.6223 35.5706 35.4771L35.0221 33.9673L34.5788 33.7656L30.6815 41.4625L30.6641 42.003Z" fill="#318ECD"/>
<path d="M28.28 23.161C28.2982 23.0675 28.3998 22.9719 28.1792 22.9416C27.9694 22.913 27.6108 22.8541 27.3236 22.9783C27.1147 23.0695 26.7004 23.33 26.4241 23.6503C26.0042 24.1356 25.2685 24.743 25.0273 25.2928C24.8643 25.6659 25.0116 26.3577 25.1314 26.8595L26.5935 33.6662C26.648 33.8009 26.7876 33.8816 26.9308 33.8594L27.8666 33.4544L27.3152 35.0864C27.2333 35.2171 27.2252 35.3821 27.2938 35.5196L30.3355 41.5922C30.3355 41.5922 30.7429 41.7834 30.682 41.4583C30.4263 40.0845 29.5482 36.0997 28.5051 31.53C27.6439 27.7638 27.3793 24.6579 27.8754 23.4845C28.0452 23.0836 28.28 23.161 28.28 23.161Z" fill="#318ECD"/>
<path d="M42.1102 7.83417C41.9255 4.86947 41.1817 3.75498 40.164 2.57393C39.4658 1.76439 37.8955 0.53131 35.1398 0.309058C32.9539 0.132789 26.3787 0.765256 25.716 3.04869C24.6342 6.78099 24.2522 7.97252 24.2522 7.97252C24.2522 7.97252 23.6536 8.3529 27.0148 7.77246C29.6774 7.31303 32.6333 8.94866 35.8424 9.95464C38.6236 10.8271 42.3853 8.78772 42.1102 7.83417Z" fill="#094D73"/>
<path d="M40.8723 2.59697C40.1745 1.78742 37.8947 0.528934 35.139 0.306682C35.0631 0.300632 34.9708 0.297406 34.8848 0.292969C36.7145 2.81277 36.9521 6.87986 36.2918 10.0547C39.0124 10.6005 42.3704 8.73452 42.1095 7.8318C41.9251 4.86709 41.8896 3.77801 40.8723 2.59697Z" fill="#0D5A7C"/>
<path d="M35.8413 9.95471C35.8413 9.95471 29.1434 6.36722 24.8763 7.84554C20.6095 9.32346 19.5265 10.0717 19.1748 10.2455C18.8932 10.3842 17.5912 10.7344 19.7116 11.8505C21.8313 12.967 26.2897 13.0646 28.5533 12.399C32.2219 11.3208 35.8413 9.95471 35.8413 9.95471Z" fill="#12303F"/>
<path d="M18.5215 10.7621C18.611 11.1732 18.3799 11.1502 19.713 11.8516C21.8327 12.9681 26.291 13.0657 28.5547 12.4002C32.2233 11.322 35.8422 9.95544 35.8422 9.95544C35.8422 9.95544 35.6345 9.84492 35.2743 9.67188C32.3814 10.7383 30.5695 11.3498 28.1231 12.0485C26.4806 12.518 21.5822 13.0327 18.5215 10.7621Z" fill="#094D73"/>
<path d="M25.4694 56.4885C24.4501 56.7471 23.3502 55.8581 23.1126 54.9259C23.0255 54.5947 21.12 54.5939 20.2895 54.2959C19.4033 53.9929 19.6501 53.095 19.8441 52.9156C19.9958 52.7707 23.0178 52.9018 23.7765 52.9063C26.3149 52.9248 26.6565 53.8554 26.8864 54.788C27.1405 55.7246 26.4879 56.2138 25.4694 56.4885Z" fill="#FEE7D9"/>
<path d="M0 41.5017L0.843024 40.8398L15.6412 46.8333L14.7981 47.4944L0 41.5017Z" fill="#67933E"/>
<path d="M14.7988 47.4931L15.6418 46.832L29.304 61.8601L28.4602 62.5212L14.7988 47.4931Z" fill="#67933E"/>
<path d="M14.7981 47.4966L28.4596 62.5247L13.6647 56.5331L0 41.5039L14.7981 47.4966Z" fill="#366430"/>
<path d="M6.60189 41.1215C6.79712 40.9682 7.0944 40.9444 7.44532 41.0868C8.14395 41.37 8.79255 42.2005 8.8946 42.9439L8.97769 43.5542C9.01439 43.82 8.89258 43.8353 8.7627 43.9366L8.59611 44.0423L8.62031 43.9354L8.82844 43.7672C8.87039 43.7337 8.89985 43.6627 8.89178 43.6099L8.8103 43C8.70865 42.2566 8.05924 41.4261 7.36062 41.1429C7.0101 41.0005 6.71322 41.0247 6.51758 41.1776L6.60189 41.1215Z" fill="#575858"/>
<path d="M6.29716 42.7315C6.30845 42.723 6.33064 42.6913 6.33266 42.6885C6.34072 42.6755 6.35404 42.6375 6.35565 42.6331C6.36049 42.6129 6.36372 42.5929 6.36049 42.5751L6.33709 42.377L6.33831 42.3774L6.28344 41.9777C6.1826 41.2343 6.66623 40.8631 7.36324 41.1451C8.06186 41.4283 8.71087 42.2585 8.81292 43.0023L8.84399 43.2314L8.87101 43.4152L8.89441 43.6121C8.89723 43.6298 8.8944 43.6497 8.88997 43.6702C8.88916 43.6726 8.88997 43.6746 8.88876 43.6774C8.88836 43.6802 8.87424 43.7129 8.86738 43.7258C8.86617 43.7282 8.84238 43.7609 8.83148 43.7698L8.62335 43.938L8.65117 44.1329L6.11726 43.0953L6.08984 42.9006L6.29716 42.7315Z" fill="#989898"/>
<path d="M9.61367 45.2482C9.84963 45.0642 9.95047 44.8513 9.92264 44.6568L9.93716 44.8113C9.95128 44.9916 9.86334 45.2183 9.62697 45.4027L3.94965 43.0846L3.93555 42.9297L9.61367 45.2482Z" fill="#4A4949"/>
<path d="M3.93555 42.9266L9.61367 45.2451C10.0828 44.8789 10.0191 44.4005 9.47048 44.1766L5.77771 42.6693C5.22873 42.4446 4.40425 42.5608 3.93555 42.9266Z" fill="#B5B6B6"/>
<path d="M26.1204 57.1176L25.5327 55.9975L22.8455 54.6406C22.8455 54.6406 22.5362 54.8527 21.1893 55.6578C20.1733 56.2645 19.6844 55.3852 18.3549 55.7478C17.3949 56.0096 16.7439 56.1757 16.8843 56.6578C16.9944 57.0389 18.0717 58.2103 18.8793 58.5233C20.0188 58.9642 20.1608 59.019 21.5608 59.0715C23.1452 58.9242 24.4654 58.6859 26.1204 57.1176Z" fill="#FEE7D9"/>
<path d="M46.1504 31.2738C47.918 32.0705 46.0907 37.4799 46.0907 37.4799C46.0907 37.4799 47.8639 51.2027 44.5745 54.641C43.3697 55.9011 29.8933 56.6743 25.8743 57.4899C23.6239 57.9465 24.9425 54.1021 24.9425 54.1021C25.1159 53.6362 38.3542 50.709 38.9859 49.5824C41.3194 45.4205 40.271 35.8584 40.5368 35.2352C41.686 32.4875 43.3168 29.9968 46.1504 31.2738Z" fill="#FEE7D9"/>
<path d="M45.3787 30.0262C41.903 29.7761 40.3714 32.7957 40.0902 36.1234C40.0265 36.8043 39.1548 43.9349 39.0137 49.3133C41.6855 47.4958 44.7309 48.0988 45.8987 49.9882C46.1161 50.3431 45.8389 50.1648 46.6207 49.4311C47.3632 43.2113 48.9577 36.1625 48.9577 36.1625C48.9577 36.1625 49.3724 30.3162 45.3787 30.0262Z" fill="#318ECD"/>
<path d="M38.7319 49.4041C38.7348 49.9877 40.0344 51.1208 41.7495 51.2652C43.9793 51.4503 45.0236 51.0123 45.0236 51.0123C46.0501 50.6488 46.612 50.2378 46.6842 49.5085C46.6842 49.5085 47.3054 47.0339 47.3566 46.1869C47.3856 45.6399 47.086 45.2539 47.086 45.2539C47.086 45.2539 47.0803 45.9525 46.7633 46.2986C46.1627 46.9536 45.3878 47.3659 43.2032 47.4587C39.7641 47.6023 39.1809 45.4886 39.1809 45.4886C38.6779 45.4902 38.6775 45.8089 38.7081 46.3853L38.7319 49.4041Z" fill="#08678A"/>
</g>
</svg>
