<svg width="40" height="40" viewBox="0 0 40 40" fill="none" xmlns="http://www.w3.org/2000/svg">
<path d="M16.1382 2.3463C14.0955 3.47435 12.2053 4.57191 11.9309 4.81581C11.5041 5.15118 11.4431 5.94386 11.4431 10.1511C11.4431 15.578 11.5955 16.0963 13.1199 16.2183L14.0345 16.2792L14.187 12.4682L14.3394 8.65726H19.8272H25.315L25.4065 12.5293C25.4674 16.0963 25.5285 16.4317 26.0467 16.4317C26.3516 16.4317 26.9004 16.1878 27.2358 15.8829C27.7846 15.4256 27.8456 14.8768 28.0285 10.4256C28.1809 6.03532 28.1503 5.42557 27.6625 4.90727C27.1138 4.26703 21.3821 0.760934 20.4065 0.456056C20.0101 0.334105 18.5773 0.974345 16.1382 2.3463ZM21.3211 5.02923C21.5955 5.12069 21.8089 5.39508 21.8089 5.63898C21.8089 5.97435 21.3211 6.06581 19.8882 6.06581C17.7846 6.06581 17.3578 5.88288 17.876 5.24264C18.2418 4.8463 20.437 4.69386 21.3211 5.02923Z" fill="white"/>
<path d="M15.4062 13.0763V16.43H19.8269H24.2476V13.0763V9.72266H19.8269H15.4062V13.0763Z" fill="white"/>
<path d="M18.7 18.3233C18.639 19.1769 18.4561 19.3599 17.7854 19.4208C17.1147 19.5123 16.9316 19.6953 16.9316 20.2745C16.9316 20.8842 17.0841 21.0062 17.8464 21.0062C18.6695 21.0062 18.761 21.0977 18.761 21.9208C18.761 22.744 18.8524 22.8355 19.6756 22.8355C20.4988 22.8355 20.5902 22.744 20.5902 21.9208C20.5902 21.0977 20.6817 21.0062 21.5049 21.0062C22.2671 21.0062 22.4195 20.8842 22.4195 20.244C22.4195 19.6039 22.2671 19.4818 21.5049 19.4818C20.6513 19.4818 20.5902 19.3904 20.5902 18.4148C20.5902 17.4392 20.5293 17.3477 19.7061 17.3477C18.9134 17.3477 18.7914 17.4696 18.7 18.3233Z" fill="white"/>
<path d="M10.3143 24.8753C10.0094 24.9669 9.91797 26.2168 9.91797 29.5706V34.1132H16.168H22.418V29.5706C22.418 24.4181 22.5399 24.662 19.8265 24.662H18.1802L18.0887 26.7046L17.9972 28.7778H16.3204H14.6436L14.5522 26.7046L14.4606 24.662L12.5704 24.6925C11.5338 24.6925 10.4972 24.7839 10.3143 24.8753Z" fill="white"/>
<path d="M15.3149 24.845C15.193 24.967 15.1016 25.7902 15.1016 26.7048V28.3207H16.3211H17.571L17.4796 26.5523C17.3881 24.8755 17.3577 24.8146 16.4735 24.7231C15.9552 24.6622 15.4369 24.7231 15.3149 24.845Z" fill="white"/>
<path d="M23.0293 32.4368C23.0293 37.4977 23.2732 38.5648 24.0049 36.5526C24.7366 34.4489 27.755 34.4489 28.4867 36.5831C29.066 38.2904 29.5842 37.4672 29.6757 34.6319C29.7367 32.2538 29.6757 31.766 28.7915 29.6928L27.8465 27.4062H25.4379H23.0293V32.4368ZM27.6026 30.0282C27.9379 30.7903 28.2123 31.4916 28.2123 31.5526C28.2123 31.6136 27.2672 31.6745 26.0782 31.6745H23.944V30.1502V28.6258H25.4683C27.0232 28.6258 27.0232 28.6258 27.6026 30.0282Z" fill="white"/>
<path d="M9.91797 35.9116C9.91797 37.1617 10.2533 37.4666 11.6253 37.4666C12.0826 37.4666 12.357 37.2835 12.357 36.9788C12.357 36.7349 12.7533 36.0946 13.2411 35.6068L14.1253 34.7227H12.0216H9.91797V35.9116Z" fill="white"/>
<path d="M15.8944 35.3019C16.4126 35.6373 16.9309 36.247 17.0529 36.6739C17.2359 37.436 17.2968 37.4666 19.8273 37.4666H22.4188V36.0946V34.7227H18.6993H14.9492L15.8944 35.3019Z" fill="white"/>
<path d="M13.4854 36.1879C12.7841 36.95 12.8451 37.9561 13.5768 38.6879C14.3695 39.4805 14.9792 39.4501 15.8634 38.5354C16.7475 37.6817 16.8085 37.255 16.1378 36.3098C15.5585 35.4866 14.1865 35.4257 13.4854 36.1879ZM15.528 37.0719C15.6499 37.3464 15.5585 37.7732 15.3146 37.9867C15.1012 38.2306 14.6743 38.322 14.4 38.2001C13.8817 38.0171 13.6987 37.133 14.0951 36.7672C14.461 36.3708 15.3451 36.5537 15.528 37.0719Z" fill="white"/>
<path d="M25.0114 36.1284C24.2797 36.8907 24.5236 38.4151 25.4992 38.9638C26.2309 39.3601 26.3833 39.3601 27.115 38.9029C28.548 37.9577 27.9382 35.6406 26.2309 35.6406C25.8346 35.6406 25.2857 35.8541 25.0114 36.1284ZM26.8407 37.4699C26.8407 37.9577 26.6577 38.2626 26.2919 38.3236C25.7127 38.4455 25.3163 37.7138 25.5907 36.9821C25.865 36.2199 26.8407 36.5858 26.8407 37.4699Z" fill="white"/>
</svg>
