<svg width="68" height="121" viewBox="0 0 68 121" fill="none" xmlns="http://www.w3.org/2000/svg">
<mask id="mask0_33_72" style="mask-type:luminance" maskUnits="userSpaceOnUse" x="0" y="0" width="68" height="121">
<path d="M68 0.28125H0V120.281H68V0.28125Z" fill="white"/>
</mask>
<g mask="url(#mask0_33_72)">
<path d="M21.7542 48.6061C20.7228 49.0573 19.4236 47.9741 19.011 47.0318C18.8608 46.6974 16.8341 47.365 15.9049 47.1948C14.9173 47.0293 15.0217 46.0386 15.1944 45.8162C15.3303 45.6367 18.5424 45.2487 19.3434 45.121C22.0259 44.6986 22.5475 45.621 22.9537 46.5649C23.3841 47.5102 22.7809 48.1396 21.7542 48.6061Z" fill="#FEE7D9"/>
<path d="M24.0185 49.0264L22.8432 46.293L19.1696 46.6975L18.6437 46.9258L14.6247 49.1979C14.6247 49.1979 12.6048 50.1372 13.5402 52.3116C14.1497 53.7296 13.6022 52.4703 13.6022 52.4703C14.4401 54.4155 17.8318 53.1448 17.8318 53.1448L21.3678 51.0692C23.0588 50.1461 24.0185 49.0264 24.0185 49.0264Z" fill="#FEE7D9"/>
<path d="M46.0745 23.7141C49.4238 25.414 46.4527 31.0141 46.4527 31.0141C46.4527 31.0141 41.2974 40.7716 37.5436 44.4664C37.3403 44.6629 25.9241 48.8777 23.2339 49.5691C20.8923 50.1709 21.8502 45.3412 21.8502 45.3412C22.0739 44.8688 31.0348 41.7738 31.7979 40.649C34.6175 36.4937 38.7881 27.6814 39.123 27.0515C40.5733 24.2744 43.1573 22.2366 46.0745 23.7141Z" fill="#FEE7D9"/>
<path d="M46.075 23.7109C42.8055 22.0476 40.3361 24.6426 38.7028 27.7546C38.4176 28.2903 35.7232 32.9061 33.3994 37.6127C32.9673 38.4884 40.2452 40.0851 40.0292 41.072C44.3589 36.6819 46.6009 32.2325 46.6009 32.2325C46.6009 32.2325 49.8279 25.6248 46.075 23.7109Z" fill="#1872A3"/>
<path d="M31.9765 39.2877C31.7597 39.8628 32.9587 41.7095 34.5903 42.4964C36.7121 43.5176 37.9031 43.4799 37.9031 43.4799C39.0486 43.5084 39.7596 43.5927 40.336 42.9391C40.336 42.9391 41.6713 41.4532 42.2192 40.7486C43.0261 39.7109 42.7188 39.0958 42.7188 39.0958C42.7188 39.0958 42.2961 39.4036 41.8733 39.4804C40.9531 39.648 40.1747 39.2884 37.9918 38.558C34.5589 37.406 34.151 36.0775 34.151 36.0775C33.6552 35.8895 33.4129 36.0567 33.2261 36.634L31.9765 39.2877Z" fill="#08678A"/>
<path opacity="0.15" d="M67.3789 110.347C67.6738 109.46 67.3789 110.347 63.7579 105.098C62.3025 102.988 61.4668 105.521 54.0042 103.814C45.6609 101.905 20.5462 108.037 24.6412 113.115C28.4846 117.88 33.5702 116.142 41.7055 113.115C48.3163 110.655 47.1868 121.397 54.3119 120.186C62.4591 118.802 66.4561 113.115 67.3789 110.347Z" fill="#010101"/>
<path d="M57.0501 106.426L52.5035 110.182C52.5035 110.182 50.3991 111.905 49.4212 112.796C48.8902 113.297 48.737 114.121 48.7624 114.633C48.7705 114.971 48.9606 115.865 49.2111 116.084C49.8465 116.635 51.0646 116.994 52.0603 117.117C54.9924 117.491 57.7407 115.417 57.7407 115.417C58.191 115.06 65.5517 110.774 65.5517 110.774C65.5517 110.774 65.6323 109.743 65.5734 109.145L63.7593 105.098L57.0501 106.426Z" fill="#555555"/>
<path d="M48.7314 114.577C48.9623 115.32 51.0663 115.999 52.0552 116.158C56.9703 116.933 64.1277 110.996 64.5398 110.735C65.519 110.11 65.6039 109.727 65.6039 109.727C65.6039 109.727 65.6281 110.866 65.5818 110.852C65.5818 110.852 65.6192 111.984 65.0665 112.39C64.6192 112.726 60.1023 115.448 59.1549 115.898C59.1549 115.898 55.1541 118.137 51.9012 117.493C50.9194 117.3 49.5905 117.043 48.9394 116.177C48.7318 115.917 48.6992 114.47 48.7314 114.577Z" fill="#0C4451"/>
<path d="M35.1533 103.591L32.7251 105.479C32.7251 105.479 27.7175 108.762 26.7439 109.681C26.2086 110.174 26.0758 111.006 26.1055 111.522C26.1144 111.856 26.3228 112.747 26.5694 112.958C27.2146 113.506 28.4399 114.012 29.4378 113.965C31.3656 113.868 35.0956 112.191 35.0956 112.191C35.5413 111.835 42.8409 107.449 42.8409 107.449C42.8409 107.449 42.9088 106.423 42.8434 105.82L41.5017 101.863L35.1533 103.591Z" fill="#555555"/>
<path d="M26.0826 111.457C26.3182 112.208 28.0054 112.745 29.0007 112.802C32.4217 113 41.4212 107.692 41.8295 107.425C42.8019 106.787 42.8791 106.395 42.8791 106.395C42.8791 106.395 42.9258 107.543 42.8893 107.534C42.8893 107.534 42.9305 108.663 42.38 109.085C41.9415 109.413 38.2739 111.121 37.3448 111.574C37.3448 111.574 31.9327 114.178 29.0843 114.098C28.0792 114.07 26.9642 113.923 26.2914 113.067C26.089 112.803 26.0398 111.353 26.0826 111.457Z" fill="#0C4451"/>
<path d="M37.4291 62.2891L31.7188 85.8542L32.8601 95.8809C32.8601 98.1067 33.3983 104.336 33.3983 104.336C33.3983 104.336 41.4249 107.702 43.16 104.182L41.2673 88.4017L51.8412 65.2573L37.4291 62.2891Z" fill="#094D73"/>
<path d="M41.9453 64.541L45.6193 88.6664C45.6193 88.6664 53.8747 107.652 54.9621 108.096C61.5758 110.793 64.5334 107.849 64.5334 107.849C65.0117 107.512 64.9332 107.182 64.9349 106.734L57.1612 87.2835L55.609 61.457L41.9453 64.541Z" fill="#0462A4"/>
<path d="M44.5239 23.4038C41.6831 26.4594 40.7255 28.8087 39.4017 36.0705L35.6415 59.7897C35.4637 60.7646 35.3465 61.9412 36.2476 62.945C36.2476 62.945 42.5587 68.3971 46.4551 68.6403C48.9411 68.7943 55.4588 67.5922 55.4588 67.5922C57.0488 67.6028 57.4303 65.2578 57.3191 65.5901L63.2066 34.2561C63.7096 32.0019 57.387 26.3172 57.387 26.3172L51.8459 23.8937C51.8459 23.8937 45.1028 22.782 44.5239 23.4038Z" fill="#DCDBDB"/>
<path d="M60.5582 29.5252C60.2883 29.3194 58.8027 27.6993 58.8027 27.6993C58.8027 27.6993 58.8409 28.0834 58.4568 28.6984C58.0549 29.341 56.4853 30.2375 55.8817 30.8122C55.1559 31.5036 53.4607 32.6568 51.3563 35.0494C51.3266 35.0829 50.9471 35.3291 50.9238 35.3664C49.3958 37.8308 47.013 41.5395 45.3895 43.2068C45.2384 41.4436 44.8466 38.4504 44.6976 34.9051C44.5054 30.3351 43.8021 26.7112 44.2078 25.2486C44.7549 23.274 45.4587 22.9803 45.4472 22.9141C43.718 23.1013 40.6926 26.4756 39.2788 35.0782L35.3968 60.982C35.2181 61.9574 35.8696 63.5177 36.7707 64.5215C36.7707 64.5215 43.4532 68.8474 47.3496 69.0914C49.8355 69.2455 56.3533 68.0435 56.3533 68.0435C57.9432 68.0541 58.3252 65.7086 58.2132 66.041L64.2984 34.386C64.545 33.2777 62.0485 31.2094 60.5582 29.5252Z" fill="#1A76B3"/>
<path d="M58.2123 66.0403L58.3205 65.4783C54.4823 66.6897 51.2225 67.6086 47.4641 67.1311C43.9858 66.6889 37.9778 64.0471 35.3449 61.2891C35.2053 62.1978 35.9617 63.6201 36.7698 64.5208C36.7698 64.5208 43.4522 68.8467 47.3486 69.0908C49.8346 69.2449 56.3524 68.0428 56.3524 68.0428C57.9427 68.0539 58.3243 65.708 58.2123 66.0403Z" fill="#318ECD"/>
<path d="M48.2197 21.9681L49.5248 17.2309L57.3168 15.9414L56.147 22.851C56.147 22.851 55.9683 24.4413 56.9195 25.7962C56.9624 25.9252 57.0372 27.3509 53.9939 29.3386C52.2248 30.4964 48.243 30.898 48.243 30.898C48.243 30.898 46.9625 29.2588 46.5542 28.3547C45.8161 26.7346 45.8135 23.8441 48.2197 21.9681Z" fill="#E8C6AD"/>
<path d="M48.1368 30.661C48.5438 31.0027 48.2132 31.4509 47.981 31.7578L46.5307 33.6695C46.0693 34.2395 45.8855 33.5774 45.8919 32.9632C45.8919 32.9632 45.5328 28.4577 45.5927 26.6046C45.6797 23.886 46.5727 22.7422 46.5727 22.7422C46.5727 22.7422 47.6966 22.8572 47.178 23.2608C46.7815 23.5694 46.6517 24.2867 46.6207 24.5482C46.5086 25.501 46.751 29.498 48.1368 30.661Z" fill="#F3F3F3"/>
<path d="M56.5734 25.1066C56.5734 25.1066 56.1125 26.4902 55.267 27.2589C53.1104 29.2194 48.6779 30.6952 48.6779 30.6952C48.2081 30.8561 48.2204 31.0857 48.2734 31.8756L48.6512 34.7677C48.7047 35.5271 49.1011 35.4617 49.4109 35.1574C49.4109 35.1574 52.5242 32.6192 53.4033 31.7623C55.4682 29.7449 57.6693 27.8158 57.1502 26.2593C56.6294 24.6991 56.5734 25.1066 56.5734 25.1066Z" fill="#F3F3F3"/>
<path d="M52.3236 6.36248L58.6016 7.5314L56.6305 18.8788C56.4047 19.6407 56.3109 20.3487 56.0621 20.9841C55.785 21.6738 55.3385 22.2918 54.3372 22.7948C54.3372 22.7948 53.0002 23.3313 51.4633 23.8419C50.8355 24.052 48.8581 24.8113 47.6357 24.1012C47.1751 23.8359 46.308 23.136 46.308 23.136C45.5317 22.4535 45.1684 21.9692 44.9943 20.7961C44.7588 19.2744 44.44 17.586 44.502 16.923L45.6909 7.85058L47.9434 4.80859L52.3236 6.36248Z" fill="#FEE0CD"/>
<path d="M45.8497 6.6726C45.4834 7.64882 45.3221 9.23709 45.3934 9.24897C45.3934 9.24897 47.098 5.83051 48.3803 7.49093C49.6264 9.08853 51.081 10.3559 51.9549 10.5273C52.8267 10.6971 52.4749 9.67597 52.6595 9.75788C54.5512 10.5846 54.4001 13.0417 54.1658 14.0218L53.9842 15.0107C53.8904 15.526 53.6964 16.0999 54.207 16.1325C54.7605 16.1699 54.7512 15.9572 54.9986 15.4386C54.9986 15.4386 55.8806 13.2013 57.4218 14.2518C58.4493 14.9522 57.187 17.3083 57.0894 17.4377L56.0151 21.082C56.4587 21.3057 57.6751 19.8095 58.4124 19.0345C60.243 17.1376 60.9629 15.8049 61.4018 15.1457C63.6186 11.7281 63.6365 7.65943 61.7617 4.93026C61.1789 4.07076 60.1705 3.45277 58.5788 2.31611C57.547 1.5797 51.1549 0.531327 49.0318 1.97528C48.0675 2.63232 47.2135 3.03554 45.8497 6.6726Z" fill="#633C16"/>
<path d="M57.3911 13.8306C55.7481 13.5348 55.2005 15.5361 55.2005 15.5361L54.7027 18.3196C54.7027 18.3196 54.6462 19.0449 55.2307 19.2792C56.125 19.6409 56.6738 18.9066 57.2442 18.0921C57.2824 18.0479 58.0515 16.8289 58.0927 16.7576C58.7438 15.7279 58.9221 14.1121 57.3911 13.8306Z" fill="#FEE7D9"/>
<path d="M42.7337 66.6176L41.8203 66.4912C41.8335 66.3952 43.1535 56.8826 43.7031 52.6968C44.395 47.4332 45.0219 42.918 45.1216 42.4375L45.794 42.803C45.794 42.803 45.3097 47.5508 44.6178 52.8173C44.0673 57.0061 42.7469 66.5217 42.7337 66.6176Z" fill="#318ECD"/>
<path d="M55.3116 46.8201C55.7836 47.0926 56.0764 47.6006 56.0748 48.1456L54.8447 54.6409C54.8434 55.0348 54.4177 55.2793 54.0765 55.0827L48.1572 53.6799C47.6856 53.407 47.3928 52.899 47.3945 52.3536L48.4522 45.652C48.4539 45.2581 48.88 45.0132 49.2208 45.2102L55.3116 46.8201Z" fill="#318ECD"/>
<path d="M55.6941 50.1562L56.0744 48.1452C56.0761 47.6002 55.7832 47.0921 55.3112 46.8196L49.22 45.2102C48.8792 45.0132 48.453 45.2581 48.4514 45.652L47.7111 47.5616C47.611 47.8213 47.7591 48.1104 48.0286 48.18L55.6941 50.1562Z" fill="#359DD8"/>
<path d="M57.5392 26.4723C57.6245 26.3653 58.2714 26.3492 58.3622 26.4515L61.4148 29.8661C61.5086 29.971 61.4916 30.1323 61.3783 30.2155L52.7107 36.574C52.5872 36.6645 52.4174 36.6577 52.302 36.5579L50.9238 35.3644L57.7697 26.7312L57.5392 26.4723Z" fill="#318ECD"/>
<path d="M45.3887 43.2075L51.4973 37.7508C51.6179 37.6435 51.6748 37.4792 51.6459 37.3196L51.3467 35.6554L50.9235 35.3672L45.5042 42.6502L45.3887 43.2075Z" fill="#318ECD"/>
<path d="M46.2902 23.2481C46.3263 23.1543 46.4486 23.0733 46.2257 23.0028C46.0127 22.9358 45.651 22.8101 45.3323 22.8878C45.0984 22.9447 44.6235 23.1408 44.278 23.4235C43.7559 23.8513 42.8845 24.3499 42.536 24.8767C42.2996 25.2345 42.3281 25.9782 42.3633 26.5198L42.6604 33.8401C42.6918 33.9895 42.823 34.0981 42.9758 34.1002L44.0173 33.8485L43.154 35.4423C43.0458 35.5633 43.0084 35.7326 43.0551 35.8876L45.1209 42.7289C45.1209 42.7289 45.5097 43.0001 45.505 42.652C45.4855 41.1822 45.289 36.8922 45.0246 31.9674C44.8068 27.908 45.0882 24.6403 45.8123 23.5126C46.0606 23.1255 46.2902 23.2481 46.2902 23.2481Z" fill="#318ECD"/>
<path d="M63.3761 9.82788C63.7157 6.72053 63.144 5.43149 62.2998 4.02446C61.7212 3.06055 60.3134 1.50029 57.4959 0.777041C55.2608 0.202769 48.3296 -0.318443 47.2346 1.93026C45.443 5.60679 44.8343 6.77358 44.8343 6.77358C44.8343 6.77358 44.145 7.06093 47.7341 7.06093C50.5779 7.06093 53.3491 9.28671 56.4972 10.9042C59.2251 12.3066 63.4916 10.8652 63.3761 9.82788Z" fill="#094D73"/>
<path d="M63.0313 4.17618C62.4532 3.21185 60.3148 1.49795 57.4969 0.774693C57.4189 0.754744 57.3255 0.734793 57.2359 0.714844C58.6824 3.65539 58.2007 7.91511 56.9473 11.0891C59.6705 12.1421 63.4863 10.8085 63.3772 9.82595C63.7167 6.7186 63.8755 5.58321 63.0313 4.17618Z" fill="#0D5A7C"/>
<path d="M56.496 10.904C56.496 10.904 50.1922 5.98474 45.5042 6.75341C40.8154 7.52208 39.5582 8.10399 39.163 8.22114C38.846 8.31494 37.4338 8.44482 39.4321 9.98173C41.4304 11.519 46.0352 12.4184 48.5025 12.134C52.4986 11.6727 56.496 10.904 56.496 10.904Z" fill="#12303F"/>
<path d="M38.3929 8.63672C38.412 9.07899 38.1764 9.0132 39.4327 9.97923C41.431 11.5166 46.0358 12.416 48.5031 12.1316C52.4997 11.6702 56.4971 10.9016 56.4971 10.9016C56.4971 10.9016 56.3014 10.7496 55.9589 10.5055C52.7688 11.0934 50.7794 11.4032 48.1181 11.6897C46.3312 11.8816 41.1602 11.5382 38.3929 8.63672Z" fill="#094D73"/>
<path d="M39.0484 67.2469C39.0484 67.2469 38.6295 67.1188 38.4716 66.6705C38.3018 66.185 39.4754 64.1319 40.2589 63.7304C41.0471 63.3272 41.4121 63.3272 42.3348 63.4999C43.3603 63.6922 44.0263 62.6973 44.6404 62.9809C45.2546 63.2648 44.775 66.2958 44.775 66.4846C44.7745 66.6744 39.0484 67.2469 39.0484 67.2469Z" fill="#FCDDCD"/>
<path d="M23.5661 48.861L45.4364 36.1523L45.3668 62.7246L23.4902 75.4388L23.5661 48.861Z" fill="#DCA927"/>
<path d="M31.3535 62.1113C32.5984 61.3906 33.6099 61.9682 33.6158 63.3922L31.5526 64.5871L31.5658 67.4894C31.5675 67.969 31.23 68.554 30.8115 68.795C30.393 69.0357 30.0522 68.8425 30.0492 68.3607V68.2696C30.0492 68.1444 30.1405 67.9974 30.2457 67.938C30.351 67.8756 30.4363 67.9258 30.4363 68.0459V68.138C30.4363 68.377 30.6082 68.4687 30.8115 68.3502C31.0106 68.2322 31.1757 67.9483 31.1757 67.711L31.1685 64.8078L29.1133 65.9957C29.1048 64.5717 30.1137 62.8337 31.3535 62.1113Z" fill="#12303F"/>
<path d="M37.7577 58.4141L37.7679 60.2655C37.7679 61.2065 37.1516 62.3423 36.3575 62.9076L36.3664 65.1521L37.2475 64.6365C37.3503 64.5724 37.4381 64.6254 37.4381 64.7489C37.4381 64.8694 37.3545 65.0171 37.2475 65.0782L35.0931 66.3244C34.9857 66.3864 34.897 66.3376 34.897 66.2132C34.897 66.0914 34.9857 65.9411 35.0867 65.8783L35.9742 65.3678L35.9653 63.1334C35.1686 63.4862 34.5489 63.0655 34.5489 62.1228L34.543 60.2706L37.7577 58.4141Z" fill="#12303F"/>
<path d="M42.9741 55.4062L44.0488 55.8537L43.4907 56.1784L43.5026 61.0573L43.868 60.8481C43.9699 60.7899 44.062 60.8328 44.062 60.9589C44.062 61.082 43.9792 61.2331 43.868 61.2912L39.4165 63.8638C39.3112 63.9211 39.2242 63.8727 39.2242 63.7509C39.2242 63.6303 39.3112 63.4788 39.4165 63.416L39.7743 63.2135L39.7615 58.3269L39.2051 58.6455L40.2751 56.9602L41.343 57.4139L40.7857 57.7365L40.798 62.6217L42.4703 61.6558L42.4601 56.7696L41.9113 57.0846L42.9741 55.4062Z" fill="#12303F"/>
<path d="M0.078125 35.3036L21.9544 22.5898L45.4354 36.1504L23.5651 48.8591L0.078125 35.3036Z" fill="#FFD550"/>
<path d="M23.5651 48.8602L23.4891 75.438L0 61.8732L0.0780936 35.3047L23.5651 48.8602Z" fill="#FBCA0D"/>
<path d="M20.1924 64.8485L20.1758 69.8798L19.5859 69.5411L19.599 64.5L20.1924 64.8485Z" fill="#2C3D4D"/>
<path d="M18.0362 63.6072L18.0235 68.6347L17.832 68.5273L17.8405 63.4922L18.0362 63.6072Z" fill="#2C3D4D"/>
<path d="M17.3999 63.2368L17.3872 68.2705L17.0039 68.0499L17.0166 63.0156L17.3999 63.2368Z" fill="#2C3D4D"/>
<path d="M16.3158 62.6127L16.3035 67.6415L15.7598 67.3292L15.7746 62.2969L16.3158 62.6127Z" fill="#2C3D4D"/>
<path d="M14.7928 61.734L14.7758 66.7603L14.3926 66.5407L14.4062 61.5078L14.7928 61.734Z" fill="#2C3D4D"/>
<path d="M13.9682 61.257L13.9513 66.2909L13.7539 66.1729L13.7688 61.1445L13.9682 61.257Z" fill="#2C3D4D"/>
<path d="M13.4568 60.9584L13.442 65.9944L13.0566 65.7682L13.0642 60.7305L13.4568 60.9584Z" fill="#2C3D4D"/>
<path d="M20.6808 65.1275L20.671 70.1627L20.418 70.018L20.435 64.9883L20.6808 65.1275Z" fill="#2C3D4D"/>
<path d="M21.1938 65.4251L21.1773 70.4608L20.9277 70.3165L20.9383 65.2812L21.1938 65.4251Z" fill="#2C3D4D"/>
<path d="M12.2556 60.2677L12.2416 65.2953L12.1113 65.2189L12.1151 60.1875L12.2556 60.2677Z" fill="#2C3D4D"/>
<path d="M11.4639 59.2617L21.8789 65.2701L21.8543 71.838L11.4473 65.8274L11.4639 59.2617ZM19.0343 69.2255L19.0474 64.1916L18.3471 63.7854L18.3344 68.8223L19.0343 69.2255ZM20.1739 69.8821L20.1905 64.8508L19.5971 64.5023L19.5839 69.5434L20.1739 69.8821ZM16.3025 67.6415L16.3149 62.6127L15.7737 62.2969L15.7588 67.3287L16.3025 67.6415ZM13.4405 65.9959L13.4554 60.9599L13.0628 60.732L13.0551 65.7697L13.4405 65.9959ZM14.775 66.7612L14.792 61.7349L14.4053 61.5087L14.3917 66.5418L14.775 66.7612ZM17.3862 68.2701L17.3989 63.2366L17.0156 63.0155L17.0029 68.0498L17.3862 68.2701ZM21.1777 70.4594L21.1943 65.4242L20.9387 65.2799L20.9277 70.3151L21.1777 70.4594ZM20.6709 70.1648L20.6807 65.1296L20.4349 64.9904L20.418 70.0201L20.6709 70.1648ZM13.9511 66.2922L13.9681 61.2583L13.7686 61.1458L13.7533 66.1742L13.9511 66.2922ZM18.0224 68.6347L18.0351 63.6071L17.8395 63.4921L17.831 68.5273L18.0224 68.6347ZM12.2423 65.2981L12.2563 60.271L12.1154 60.1908L12.1116 65.2222L12.2423 65.2981ZM12.7334 65.5817L12.7495 60.5499L12.6256 60.4832L12.6129 65.5154L12.7334 65.5817Z" fill="#E4E8E8"/>
<path d="M12.7499 60.5476L12.7338 65.5793L12.6133 65.5127L12.626 60.4805L12.7499 60.5476Z" fill="#2C3D4D"/>
<path d="M19.0485 64.1914L19.0358 69.2257L18.3359 68.8221L18.3486 63.7852L19.0485 64.1914Z" fill="#2C3D4D"/>
<path d="M45.9449 64.5214C44.8456 64.6564 43.9263 63.2688 43.8032 62.2642C43.7561 61.9076 41.6568 61.9654 40.8287 61.5431C39.945 61.1093 40.3223 60.2052 40.5477 60.0439C40.7268 59.9128 43.8634 60.4518 44.6538 60.5575C47.3014 60.9149 47.5336 61.9314 47.6503 62.9361C47.7908 63.9471 47.0446 64.3707 45.9449 64.5214Z" fill="#FEE7D9"/>
<path d="M47.9403 64.3517L47.1029 63.3173L44.049 62.4727C44.049 62.4727 43.8457 63.0266 42.622 64.1356C41.6993 64.9718 40.9213 65.5049 39.6242 66.1534C38.6883 66.6216 38.3377 66.8062 38.7736 67.1046C39.0478 67.2918 39.7541 67.6666 40.662 67.5944C41.6823 67.5134 43.1186 67.3945 43.1186 67.3945C44.3347 67.3983 46.5566 66.3122 47.9403 64.3517Z" fill="#FEE7D9"/>
<path d="M62.7014 33.728C66.3915 34.4258 64.6708 40.5654 64.6708 40.5654C64.6708 40.5654 64.232 52.0975 61.4591 56.6951C60.7778 57.8254 51.9167 62.6789 47.9389 64.3508C45.7097 65.2875 45.5352 61.6623 45.5352 61.6623C45.6176 61.1462 54.8908 54.6832 55.3093 53.3899C56.8568 48.6133 57.5818 39.6728 57.7274 38.9746C58.3462 35.9029 59.4875 33.1228 62.7014 33.728Z" fill="#FEE7D9"/>
<path d="M62.614 32.7557C58.9888 32.198 57.8131 35.3571 57.2354 38.8236C57.1119 39.5324 55.5907 46.9364 54.9863 52.5658C57.9434 50.8867 61.0847 51.7771 62.1488 53.8578C62.3487 54.2487 62.0724 54.0377 62.9535 53.3344C64.2608 46.8744 65.3071 40.4135 65.3071 40.4135C65.3071 40.4135 66.7773 33.3992 62.614 32.7557Z" fill="#318ECD"/>
<path d="M54.801 52.5029C54.7827 53.117 56.11 54.3551 57.9079 54.5678C60.2475 54.8428 61.3608 54.4196 61.3608 54.4196C62.4533 54.0737 63.059 53.6616 63.1604 52.8967C63.1604 52.8967 63.9023 50.3165 63.986 49.4282C64.0373 48.8535 63.8739 48.6578 63.8739 48.6578C63.8739 48.6578 63.5025 49.4044 63.3586 49.5245C62.64 50.1234 61.8739 50.5975 59.5717 50.6179C55.9517 50.6459 55.5777 48.5008 55.5777 48.5008C55.048 48.4842 54.8736 48.7215 54.8842 49.328L54.801 52.5029Z" fill="#1A76B3"/>
</g>
</svg>
