<svg width="96" height="121" viewBox="0 0 96 121" fill="none" xmlns="http://www.w3.org/2000/svg">
<mask id="mask0_33_150" style="mask-type:luminance" maskUnits="userSpaceOnUse" x="0" y="0" width="96" height="121">
<path d="M96 0.28125H0V120.281H96V0.28125Z" fill="white"/>
</mask>
<g mask="url(#mask0_33_150)">
<path opacity="0.15" d="M6.6442 100.513C6.6442 100.513 1.28931 102.343 2.83765 103.357C10.3844 108.302 12.4662 109.343 21.8346 114.548C24.0506 115.78 27.2992 114.613 32.244 111.946C35.4024 110.241 39.7903 115.849 45.2708 111.9C49.8879 108.573 46.0485 104.809 35.1061 101.797C24.1637 98.7843 6.6442 100.513 6.6442 100.513Z" fill="#010101"/>
<path d="M47.6139 44.4889C46.8007 44.9866 45.5867 44.2284 45.1321 43.4857C44.9673 43.223 43.3451 44.0166 42.5466 43.9811C41.6991 43.957 41.6724 43.114 41.7919 42.9074C41.8854 42.7412 44.5334 42.0445 45.1901 41.8454C47.3903 41.1812 47.9348 41.8952 48.3842 42.6386C48.8538 43.3821 48.4206 43.9796 47.6139 44.4889Z" fill="#FEE7D9"/>
<path d="M48.6024 42.1523L45.5691 42.9153L45.1544 43.1676L44.3031 43.8171C44.4211 44.0196 44.4335 44.2865 44.2345 44.5146C43.7674 44.999 43.3809 45.6248 43.6611 46.3204C43.6844 46.3781 43.7033 46.432 43.7236 46.4882C44.8222 47.1717 46.3653 47.3734 47.2818 46.717C47.3745 46.6506 47.4657 46.6205 47.5528 46.6133L47.9163 46.3268C49.2271 45.3583 49.9027 44.3084 49.9027 44.3084L48.6024 42.1523Z" fill="#FEE7D9"/>
<path d="M64.1376 20.4609C62.1078 23.3513 61.5766 25.432 61.3052 31.6724L60.8916 51.9946C60.8554 52.833 60.8924 53.8321 61.764 54.5702C61.764 54.5702 67.6848 58.4115 70.9801 58.1668C73.0826 58.0081 78.4081 56.2475 78.4081 56.2475C79.7427 56.0733 79.7917 54.0624 79.7363 54.3546L81.0539 27.4022C81.2153 25.455 75.2576 21.4177 75.2576 21.4177L70.3324 20.0258C70.3324 20.0258 64.5508 19.8724 64.1376 20.4609Z" fill="#DCDBDB"/>
<g opacity="0.15">
<path d="M87.7147 90.3823C97.1796 86.9542 98.2793 99.1151 90.6922 103.526C83.1191 107.927 69.4027 107.145 62.8863 104.376C57.3968 102.043 51.0617 96.2917 58.6326 91.8925C66.2227 87.4801 67.5411 101.833 87.7147 90.3823Z" fill="#010101"/>
</g>
<path d="M66.0988 90.418L63.398 91.6443C63.398 91.6443 57.9503 93.5878 56.839 94.226C56.2256 94.574 55.9213 95.3235 55.8282 95.8211C55.7668 96.1299 55.7521 97.0158 55.9436 97.2737C56.4186 97.924 57.4501 98.6761 58.4027 98.8601C60.2278 99.1968 64.1056 98.4661 64.1056 98.4661C64.6108 98.2264 72.4422 95.757 72.4422 95.757C72.4422 95.757 72.7347 94.807 72.8052 94.2309L72.2612 90.5258L66.0988 90.418Z" fill="#393837"/>
<path d="M83.7095 86.6545L81.3823 91.8394C81.3823 91.8394 80.2984 94.2281 79.8329 95.4265C79.5814 96.0723 79.8155 96.8539 80.0534 97.2851C80.211 97.5735 80.7542 98.2646 81.0596 98.3524C81.8468 98.5526 83.0502 98.3453 83.9617 98.0384C86.6626 97.0865 88.1479 94.1289 88.1479 94.1289C88.3866 93.6335 92.9207 86.7699 92.9207 86.7699C92.9207 86.7699 92.5437 85.8504 92.2293 85.3516L90.8371 83.3984L83.7095 86.6545Z" fill="#393837"/>
<path d="M79.9937 97.2549C80.5196 97.7993 82.627 97.4875 83.5518 97.1953C88.1339 95.7733 91.7787 87.5815 92.029 87.1754C92.6085 86.2254 92.5176 85.8477 92.5176 85.8477C92.5176 85.8477 93.0285 86.8214 92.9855 86.8373C92.9855 86.8373 93.5008 87.7941 93.1943 88.3883C92.9406 88.8637 90.2028 93.149 89.5748 93.9399C89.5748 93.9399 87.0768 97.5987 83.9918 98.4168C83.058 98.6713 81.7984 99.0162 80.8623 98.5623C80.5781 98.4164 79.9221 97.1712 79.9937 97.2549Z" fill="#0C4451"/>
<path d="M61.7109 54.1537L63.3565 89.2017C63.3565 90.8334 63.5861 91.6756 64.0728 92.2012C66.5644 94.9009 72.5036 96.6343 73.1385 93.0977L75.1377 53.0977L61.7109 54.1537Z" fill="#094D73"/>
<path d="M64.8066 56.3811L69.8219 77.8561C69.9108 78.4853 70.2464 79.0643 70.7512 79.447L80.3186 86.6888C83.8195 89.7572 84.8294 89.379 85.8504 89.045C91.2697 87.2465 93.0292 84.6598 91.934 83.9476L81.0127 76.1154C78.589 74.0819 79.1028 74.4951 78.9611 71.3343L79.3324 55.3945L64.8066 56.3811Z" fill="#0462A4"/>
<path d="M55.814 95.742C55.869 96.496 57.331 97.3789 58.2524 97.6621C61.4199 98.6264 71.0477 95.6659 71.5035 95.5098C72.555 95.1339 72.7201 94.7852 72.7201 94.7852C72.7201 94.7852 72.4965 95.874 72.463 95.8502C72.463 95.8502 72.2473 96.9152 71.6396 97.1829C71.1544 97.3929 67.3381 98.1748 66.3488 98.3957C66.3488 98.3957 60.6938 99.613 58.036 98.9028C57.0995 98.6404 56.0907 98.2483 55.6598 97.3081C55.5293 97.0031 55.8075 95.6383 55.814 95.742Z" fill="#0C4451"/>
<path d="M65.4717 20.5401C68.4764 21.5787 66.6321 26.6173 66.6321 26.6173C66.6321 26.6173 63.98 35.9903 61.2592 39.522C61.111 39.7098 51.4824 43.9649 49.3064 44.8565C47.4131 45.6305 47.041 41.8319 47.041 41.8319C47.1745 41.41 54.9474 37.4191 55.4571 36.388C57.341 32.5788 59.8202 24.7082 60.0286 24.1408C60.924 21.6455 62.8554 19.6379 65.4717 20.5401Z" fill="#FEE7D9"/>
<path d="M64.9499 20.7497C66.902 18.3361 61.3243 19.955 59.5675 24.4435C58.8546 26.2659 57.5751 29.7947 56.17 34.0095C55.9091 34.7937 62.196 35.2913 62.1285 36.1448C65.2523 31.9628 63.6663 26.9807 63.6663 26.9807C63.6663 26.9807 64.0546 21.8569 64.9499 20.7497Z" fill="#1872A3"/>
<path d="M55.1717 35.5756C55.056 36.0834 56.2752 37.493 57.7338 37.9642C59.6308 38.5753 60.625 38.4064 60.625 38.4064C61.589 38.2983 62.1944 38.2862 62.6027 37.6728C62.6027 37.6728 63.5505 36.2719 63.9286 35.6182C64.4858 34.6546 64.1563 34.1743 64.1563 34.1743C64.1563 34.1743 63.8374 34.4808 63.4921 34.595C62.7392 34.8408 62.0451 34.6293 60.1307 34.2693C57.1193 33.6996 56.6235 32.6331 56.6235 32.6331C56.1862 32.5328 56.0026 32.7009 55.9129 33.2065L55.1717 35.5756Z" fill="#08678A"/>
<path d="M78.1411 23.5498C77.8915 23.4088 76.3247 22.3717 76.3247 22.3717C76.3247 22.3717 76.4016 22.6902 76.1502 23.2493C75.8878 23.8352 74.6757 24.7675 74.2354 25.3198C73.7069 25.9833 72.7659 27.0091 71.2775 29.2579C71.2567 29.29 70.3983 30.8187 70.3829 30.8523C69.3864 33.0954 68.0383 35.3378 66.8696 36.9231C66.5394 35.4626 65.8657 32.9985 65.3311 30.0432C64.6419 26.2336 63.6334 23.2768 63.805 22.003C64.0357 20.2846 64.5918 19.957 64.5741 19.9023C63.146 20.2593 60.9994 23.4382 60.8071 30.8134L60.5443 52.9813C60.5074 53.8205 61.2342 55.0526 62.1055 55.7907C62.1055 55.7907 68.2083 58.6465 71.5029 58.4003C73.6054 58.242 78.9313 56.4822 78.9313 56.4822C80.2659 56.3077 80.3149 54.2963 80.2595 54.5881L82.0612 27.7462C82.1403 26.7875 79.5854 24.7897 78.1411 23.5498Z" fill="#1A76B3"/>
<path d="M80.5392 54.6281L80.5649 54.144C77.4863 55.603 74.859 56.7502 71.6526 56.7834C68.6849 56.8151 63.3428 55.2935 60.8165 53.2852C60.8048 54.0634 61.603 55.1691 62.3849 55.8307C62.3849 55.8307 68.4877 58.6869 71.7823 58.4407C73.8848 58.2831 79.2107 56.5221 79.2107 56.5221C80.5457 56.348 80.5947 54.3367 80.5392 54.6281Z" fill="#318ECD"/>
<path d="M66.7896 19.179L67.3363 15.0554L73.7211 13.0742L73.5383 19.0026C73.5383 19.0026 73.5718 20.3571 74.526 21.3826C74.5769 21.4862 74.8043 22.6734 72.4823 24.6907C71.133 25.8662 67.8403 26.6624 67.8403 26.6624C67.8403 26.6624 66.577 25.436 66.131 24.725C65.3246 23.4523 64.988 21.0289 66.7896 19.179Z" fill="#E8C6AD"/>
<path d="M67.7227 26.4762C68.1035 26.7156 67.8781 27.1292 67.719 27.4138L66.7229 29.1838C66.4021 29.7146 66.1714 29.1808 66.1058 28.6647C66.1058 28.6647 65.2843 24.9286 65.1203 23.3678C64.8794 21.0787 65.4958 20.0163 65.4958 20.0163C65.4958 20.0163 66.4519 19.9831 66.0636 20.3816C65.7669 20.6863 65.7408 21.3023 65.745 21.5251C65.7612 22.3371 66.4262 25.6611 67.7227 26.4762Z" fill="#F3F3F3"/>
<path d="M74.1561 20.8453C74.1561 20.8453 73.9291 22.0589 73.3086 22.8012C71.7271 24.6938 68.1807 26.4434 68.1807 26.4434C67.8059 26.633 67.8425 26.8238 67.9782 27.4798L68.6285 29.8612C68.762 30.4912 69.0858 30.3909 69.3113 30.1002C69.3113 30.1002 71.6283 27.6128 72.267 26.7928C73.7648 24.8629 75.3874 22.9904 74.7725 21.7459C74.1561 20.4977 74.1561 20.8453 74.1561 20.8453Z" fill="#F3F3F3"/>
<path d="M68.429 5.62044L73.8273 5.87567L73.4853 15.6177C73.3835 16.2823 73.3873 16.887 73.252 17.448C73.0993 18.0583 72.7969 18.6284 72.015 19.1656C72.015 19.1656 70.9553 19.7703 69.7266 20.3754C69.2241 20.6246 67.6539 21.4894 66.547 21.0351C66.1305 20.8659 65.3222 20.3799 65.3222 20.3799C64.5919 19.8966 64.2319 19.5328 63.9506 18.5684C63.5774 17.3206 63.1152 15.9415 63.0899 15.3783L63.0391 7.63399L64.5765 4.82422L68.429 5.62044Z" fill="#FEE0CD"/>
<path d="M63.0354 6.6304C62.8412 7.49072 62.8887 8.84188 62.9506 8.84263C62.9506 8.84263 63.9847 5.78065 65.2518 7.02437C66.4808 8.21983 67.8474 9.11483 68.5999 9.15705C69.3501 9.1989 68.9373 8.38307 69.1013 8.43057C70.7831 8.90521 70.9399 10.9829 70.857 11.8311L70.8189 12.6816C70.7997 13.1246 70.7039 13.6286 71.1356 13.5962C71.6038 13.5638 71.5714 13.3874 71.7196 12.9229C71.7196 12.9229 72.1999 10.9455 73.614 11.6483C74.5557 12.1172 73.7701 14.2379 73.703 14.3578L73.223 17.5377C73.6208 17.6738 74.4683 16.2789 74.9964 15.5438C76.3125 13.7421 76.7619 12.5425 77.0541 11.9386C78.5172 8.81662 78.0626 5.40403 76.1757 3.33204C75.5876 2.67908 74.6707 2.27644 73.2053 1.50811C72.2549 1.00897 66.7741 0.867975 65.1609 2.32394C64.428 2.98557 63.7585 3.42365 63.0354 6.6304Z" fill="#633C16"/>
<path d="M73.5388 11.2944C72.127 11.2363 71.8989 12.9777 71.8989 12.9777L71.8027 15.3701C71.8027 15.3701 71.8389 15.9843 72.3562 16.1132C73.1486 16.3126 73.5234 15.634 73.9075 14.8846C73.9339 14.8438 74.4383 13.7332 74.4651 13.6684C74.8922 12.7296 74.8553 11.3543 73.5388 11.2944Z" fill="#FEE7D9"/>
<path d="M67.3458 57.2491L66.5646 57.2483C66.565 57.1669 66.5725 49.038 66.5503 45.4645C66.522 40.9718 66.5266 37.1136 66.5548 36.6992L67.1607 36.9273C67.1607 36.9273 67.3028 40.9642 67.3314 45.4603C67.3537 49.0358 67.3454 57.168 67.3458 57.2491Z" fill="#318ECD"/>
<path d="M75.605 39.1979C76.0325 39.3725 76.336 39.7649 76.3982 40.2215L76.117 45.8094C76.1611 46.14 75.8324 46.3945 75.524 46.2689L70.3987 45.7766C69.9712 45.602 69.6681 45.2096 69.6055 44.753L69.7189 39.0117C69.6748 38.6811 70.0032 38.4266 70.3123 38.5521L75.605 39.1979Z" fill="#318ECD"/>
<path d="M76.3118 41.948L76.3989 40.2176C76.3371 39.7611 76.0332 39.3686 75.6057 39.1941L70.313 38.5483C70.0039 38.4227 69.6755 38.6772 69.7196 39.0078L69.3193 40.6945C69.265 40.9234 69.4225 41.1488 69.657 41.1752L76.3118 41.948Z" fill="#359DD8"/>
<path d="M74.9546 21.3378C75.0134 21.2391 76.0863 21.9297 76.1745 22.0055L78.93 24.0504C79.0205 24.1265 79.0246 24.2645 78.9394 24.3474L72.2432 30.9095C72.1504 30.9992 72.0075 31.0135 71.8986 30.9434L70.6055 30.1016L75.3481 22.0726L74.9546 21.3378Z" fill="#318ECD"/>
<path d="M66.8691 37.3144L71.3603 32.0353C71.4493 31.9301 71.478 31.7861 71.4354 31.6556L70.992 30.2947L70.6041 30.1016L66.9016 36.8348L66.8691 37.3144Z" fill="#318ECD"/>
<path d="M65.3202 20.4731C65.3398 20.3902 65.4325 20.3088 65.2373 20.2752C65.051 20.2436 64.7337 20.1802 64.4754 20.282C64.2854 20.3567 63.9098 20.5764 63.6527 20.8532C63.264 21.272 62.5915 21.7908 62.3604 22.2726C62.2032 22.5994 62.3133 23.2203 62.4049 23.6705L63.4997 29.7741C63.5434 29.8955 63.6655 29.9713 63.7937 29.9562L64.6382 29.624L64.0983 31.0608C64.0211 31.1739 64.0099 31.3209 64.0668 31.4449L66.5884 36.9423C66.5884 36.9423 66.9459 37.1252 66.9018 36.8345C66.716 35.6036 66.0553 32.0304 65.2644 27.9309C64.6133 24.5527 64.472 21.7802 64.9493 20.751C65.1137 20.3966 65.3202 20.4731 65.3202 20.4731Z" fill="#318ECD"/>
<path d="M78.0965 7.24882C78.0222 4.60417 77.3941 3.58967 76.524 2.5073C75.9272 1.76574 74.5667 0.620796 72.1203 0.339178C70.1803 0.115618 64.3081 0.479422 63.6495 2.49071C62.5724 5.78116 62.1966 6.82884 62.1966 6.82884C62.1966 6.82884 61.6522 7.15042 64.661 6.73534C67.0455 6.40698 69.6265 7.95305 72.4521 8.94607C74.9022 9.80713 78.3125 8.10574 78.0965 7.24882Z" fill="#094D73"/>
<path d="M77.154 2.5529C76.5576 1.81097 74.567 0.621529 72.1207 0.339911C72.0528 0.331994 71.9717 0.326344 71.8945 0.320312C73.4469 2.6185 73.5352 6.24561 72.8509 9.05199C75.2558 9.62013 78.3016 8.06086 78.0965 7.24955C78.0226 4.60528 78.0241 3.63564 77.154 2.5529Z" fill="#0D5A7C"/>
<path d="M72.4528 8.94642C72.4528 8.94642 66.6003 5.54966 62.7575 6.7357C58.9144 7.92174 57.9282 8.55472 57.6096 8.69798C57.3548 8.81335 56.1861 9.08554 58.039 10.1441C59.8923 11.202 63.8569 11.4244 65.8927 10.9004C69.1907 10.0525 72.4528 8.94642 72.4528 8.94642Z" fill="#12303F"/>
<path d="M57.0098 9.13723C57.0769 9.50631 56.8719 9.47728 58.0372 10.1434C59.8905 11.2012 63.855 11.4237 65.8908 10.8996C69.1888 10.0518 72.451 8.94571 72.451 8.94571C72.451 8.94571 72.2696 8.84053 71.9545 8.67578C69.3475 9.53685 67.7155 10.0265 65.5176 10.5739C64.0413 10.9411 59.665 11.2503 57.0098 9.13723Z" fill="#094D73"/>
<path d="M81.7212 27.5498C84.8092 28.303 83.0833 33.4159 83.0833 33.4159C83.0833 33.4159 82.7618 43.2963 80.9714 47.4738C80.3859 48.8397 72.0803 53.4911 68.9681 54.9885C67.1238 55.8752 66.1191 52.4268 66.1191 52.4268C67.9921 51.9635 75.29 46.1091 75.7013 45.0343C77.2203 41.0656 77.1309 32.3486 77.2851 31.7643C77.9437 29.1958 79.0314 26.8968 81.7212 27.5498Z" fill="#FEE7D9"/>
<path d="M80.9694 26.8545C77.8844 26.5065 76.9981 29.2174 76.6275 32.1693C76.5464 32.7729 75.5127 39.0869 75.1934 43.8684C77.6367 42.3468 80.3243 42.9935 81.2944 44.7167C81.4768 45.0406 81.2367 44.8716 81.9579 44.2465C82.8438 38.7397 83.5077 33.2393 83.5077 33.2393C83.5077 33.2393 84.512 27.2575 80.9694 26.8545Z" fill="#318ECD"/>
<path d="M75.0317 43.8193C75.0373 44.3392 76.2015 45.3409 77.7298 45.4601C79.717 45.6116 80.6441 45.2165 80.6441 45.2165C81.5564 44.8866 82.0544 44.5176 82.1151 43.8676C82.1151 43.8676 82.6535 41.6599 82.6945 40.9059C82.7183 40.4177 82.5739 40.2578 82.5739 40.2578C82.5739 40.2578 82.2851 40.9014 82.1667 41.0081C81.5798 41.5385 80.9483 41.9664 79.0018 42.0622C75.941 42.2084 75.5519 40.4071 75.5519 40.4071C75.1033 40.4117 74.9634 40.6179 74.9943 41.1302L75.0317 43.8193Z" fill="#1A76B3"/>
<path d="M43.6708 38.7966L25.0475 94.6626C24.98 94.8639 24.8032 95.0283 24.5306 95.1081C23.9843 95.2691 23.2575 95.0282 22.9106 94.5709C22.7364 94.3413 22.6908 94.1008 22.7583 93.8969L41.3821 38.0312C41.3142 38.2341 41.3594 38.4747 41.534 38.7043C41.8812 39.1612 42.6081 39.4017 43.154 39.2411C43.4269 39.1612 43.6045 38.9968 43.6708 38.7966Z" fill="#2A515A"/>
<path d="M43.52 38.1201C43.8669 38.5774 43.7036 39.0781 43.1555 39.2394C42.6092 39.4 41.8827 39.1595 41.5355 38.7026C41.1887 38.2453 41.3527 37.7458 41.8997 37.5852C42.4475 37.4246 43.1732 37.6628 43.52 38.1201Z" fill="#23464E"/>
<path d="M22.5071 91.4961L24.1569 94.0312L1.16219 97.2251L0.0078125 94.7143L22.5071 91.4961Z" fill="#9B9B9B"/>
<path d="M16.9774 93.2214L15.627 92.4523L22.5076 91.4961L24.2629 92.2106L16.9774 93.2214Z" fill="#AEAEAE"/>
<path d="M25.7104 91.2219C25.7104 91.2219 28.3347 91.9137 29.4766 93.1066C30.7226 94.4053 30.8071 96.4234 30.0591 98.6247C29.3115 100.827 24.0007 99.8175 22.6775 100.681C21.3542 101.544 24.1798 104.106 23.4737 103.836C22.5127 103.467 20.4875 102.336 20.4875 102.336C20.4875 102.336 19.9208 101.962 19.5831 101.057C19.4255 100.631 19.3471 100.092 19.3497 99.4172C19.3557 97.8443 19.8813 95.2656 21.8771 92.9512C23.6961 90.8423 25.7104 91.2219 25.7104 91.2219Z" fill="#0E1F26"/>
<path d="M26.365 95.6575C25.2099 96.618 24.4744 98.4793 24.3658 99.729C24.2745 100.787 24.5678 101.495 25.2841 101.806C26.0008 102.119 27.4892 101.427 28.3442 99.9828C29.2004 98.5389 29.3949 97.1473 29.2784 96.3474C29.1653 95.576 28.3537 94.0054 26.365 95.6575Z" fill="#B2C8CE"/>
<g opacity="0.26">
<path d="M22.9312 100.63C23.1005 98.6804 24.2473 95.7734 26.0493 94.2767C28.3381 92.3748 29.6278 93.2087 30.2174 94.2624C30.7072 95.4714 30.611 96.9975 30.058 98.6247C29.3104 100.827 23.9996 99.8175 22.6763 100.681C22.0173 101.111 25.3609 103.913 24.8267 103.98C24.6571 103.966 24.501 103.93 24.3634 103.871C23.246 103.385 22.7875 102.28 22.9312 100.63Z" fill="#B2C8CE"/>
</g>
<path d="M26.1962 98.1273C25.9546 98.8127 26.1163 99.4932 26.5544 99.6496C26.9936 99.8027 27.5444 99.3718 27.786 98.686C28.0277 97.9999 27.8667 97.319 27.4268 97.1637C26.9879 97.0103 26.4375 97.4442 26.1962 98.1273Z" fill="#556573"/>
<path d="M22.3485 95.5662L20.998 94.7979L27.9096 93.8984L29.634 94.5558L22.3485 95.5662Z" fill="#AEAEAE"/>
<path d="M29.6448 94.5547L29.6369 97.3181L6.64258 100.512L6.65013 97.7494L29.6448 94.5547Z" fill="#9B9B9B"/>
<path d="M29.0042 96.8304C28.8624 96.7474 28.666 96.7591 28.4493 96.8839C28.0172 97.1339 27.6704 97.7367 27.6719 98.2306C27.6723 98.4782 27.7593 98.6517 27.8996 98.7331L39.1783 105.233C39.0376 105.152 38.9506 104.977 38.9502 104.73C38.9487 104.236 39.2959 103.633 39.7276 103.384C39.9439 103.259 40.14 103.247 40.2821 103.329L29.0042 96.8304Z" fill="#2A515A"/>
<path d="M39.7266 103.384C40.1563 103.135 40.5077 103.336 40.5092 103.83C40.5104 104.326 40.1616 104.931 39.7315 105.179C39.2994 105.428 38.9507 105.227 38.9492 104.731C38.9477 104.236 39.2949 103.633 39.7266 103.384Z" fill="#494949"/>
<path d="M30.8726 75.7172C30.7411 75.6406 30.5594 75.6508 30.3596 75.7662C29.9599 75.9973 29.6387 76.5552 29.6406 77.0122C29.641 77.241 29.7213 77.4024 29.8513 77.477L48.3707 88.2927C48.2406 88.2177 48.1603 88.0556 48.1596 87.8275C48.1584 87.371 48.4792 86.813 48.8789 86.5823C49.0791 86.4669 49.2604 86.4564 49.3916 86.5325L30.8726 75.7172Z" fill="#487178"/>
<path d="M48.8791 86.5828C49.2764 86.3532 49.6018 86.5391 49.6029 86.9956C49.6041 87.4552 49.2814 88.0139 48.8836 88.2438C48.484 88.4738 48.1613 88.2876 48.1602 87.828C48.1587 87.3715 48.4795 86.8131 48.8791 86.5828Z" fill="#494949"/>
<path d="M32.7184 71.7443C32.5868 71.6681 32.4055 71.678 32.2053 71.7933C31.8056 72.0244 31.4848 72.5827 31.4863 73.0393C31.4867 73.2681 31.567 73.4291 31.6971 73.5045L50.2168 84.3199C50.0863 84.246 50.0056 84.0839 50.0053 83.855C50.0038 83.3985 50.325 82.8405 50.7242 82.6098C50.9244 82.4937 51.1061 82.4827 51.2369 82.5593L32.7184 71.7443Z" fill="#487178"/>
<path d="M50.7248 82.6067C51.1222 82.3763 51.4475 82.5626 51.4486 83.0195C51.4498 83.4783 51.1271 84.0366 50.7293 84.2666C50.3297 84.4977 50.0074 84.3115 50.0059 83.8519C50.0044 83.3954 50.3256 82.837 50.7248 82.6067Z" fill="#494949"/>
<path d="M10.8931 94.0859C10.7578 94.0071 10.5708 94.0173 10.3642 94.1364C9.95217 94.3747 9.62117 94.95 9.62305 95.4209C9.62343 95.6565 9.70638 95.8228 9.84059 95.9004L33.2873 109.711C33.153 109.633 33.0697 109.467 33.0693 109.232C33.0682 108.76 33.3992 108.185 33.8109 107.948C34.0175 107.828 34.2045 107.817 34.3398 107.895L10.8931 94.0859Z" fill="#2A515A"/>
<path d="M33.8119 107.945C34.2221 107.708 34.5572 107.9 34.558 108.37C34.5595 108.844 34.2266 109.42 33.8164 109.657C33.4043 109.894 33.0718 109.702 33.0703 109.229C33.0688 108.758 33.3998 108.183 33.8119 107.945Z" fill="#487178"/>
<path d="M4.62597 94.957C4.49063 94.8782 4.30326 94.8884 4.09666 95.0076C3.68498 95.2458 3.3536 95.8219 3.35548 96.292C3.35624 96.5276 3.43918 96.6935 3.57301 96.7715L26.7253 110.503C26.5914 110.426 26.5081 110.259 26.5073 110.023C26.5058 109.553 26.8368 108.977 27.2489 108.739C27.4555 108.621 27.6421 108.609 27.7778 108.687L4.62597 94.957Z" fill="#2A515A"/>
<path d="M27.2494 108.738C27.6592 108.501 27.9947 108.693 27.9955 109.164C27.9966 109.637 27.6641 110.214 27.2539 110.45C26.8418 110.688 26.5089 110.496 26.5078 110.022C26.5067 109.552 26.8373 108.975 27.2494 108.738Z" fill="#487178"/>
<path d="M38.4615 100.469L38.4581 101.732L37.2305 102.445L37.2343 101.182L38.4615 100.469Z" fill="#858585"/>
<path d="M39.0555 100.504L38.7301 103.171L18.543 105.32L21.2295 103.431L39.0555 100.504Z" fill="#9B9B9B"/>
<path d="M32.7879 101.488L31.4375 100.72L38.349 99.8203L40.0734 100.478L32.7879 101.488Z" fill="#AEAEAE"/>
<path d="M41.7245 99.3C41.7245 99.3 44.3488 99.9914 45.4911 101.184C46.7371 102.482 46.8216 104.502 46.074 106.703C45.326 108.905 43.9692 110.492 42.6463 111.355C41.3227 112.218 40.195 112.185 39.4889 111.914C38.5276 111.544 36.5031 110.414 36.5031 110.414C36.5031 110.414 35.9357 110.039 35.5987 109.135C35.4411 108.71 35.3623 108.17 35.3653 107.495C35.371 105.923 35.8969 103.344 37.8927 101.029C39.7102 98.9204 41.7245 99.3 41.7245 99.3Z" fill="#0E1F26"/>
<path d="M42.379 103.736C41.2239 104.697 40.488 106.558 40.3794 107.808C40.2882 108.866 40.5819 109.575 41.2982 109.887C42.0148 110.199 43.5032 109.507 44.3579 108.062C45.2141 106.618 45.409 105.226 45.2921 104.426C45.1794 103.654 44.3677 102.084 42.379 103.736Z" fill="#B2C8CE"/>
<g opacity="0.26">
<path d="M38.9474 108.707C39.117 106.758 40.2639 103.851 42.0655 102.355C44.3547 100.453 45.644 101.287 46.234 102.34C46.7234 103.549 46.6276 105.075 46.0749 106.703C45.327 108.905 43.9701 110.491 42.6473 111.355C41.9879 111.784 41.3779 111.991 40.8437 112.058C40.674 112.044 40.518 112.008 40.3804 111.95C39.2626 111.463 38.8041 110.358 38.9474 108.707Z" fill="#B2C8CE"/>
</g>
<path d="M42.2119 106.206C41.9702 106.892 42.132 107.572 42.5704 107.729C43.0092 107.881 43.56 107.451 43.8017 106.765C44.0437 106.078 43.8824 105.398 43.4428 105.242C43.0036 105.089 42.4532 105.522 42.2119 106.206Z" fill="#556573"/>
<path d="M45.2106 103.078L39.1665 103.918V103.906L36.7341 104.255L22.2159 106.272V106.339L20.4044 106.6L20.3965 109.363L36.8001 107.008L45.2023 105.84L45.2106 103.078Z" fill="#B2C8CE"/>
<path d="M37.925 104.086L36.5742 103.318L43.4857 102.418L45.2105 103.076L37.925 104.086Z" fill="#AEAEAE"/>
<path d="M40.0964 104.8L21.3339 107.494L0.0078125 94.7163L18.7703 92.0234L40.0964 104.8Z" fill="#809EA5"/>
<path d="M63.4422 49.1911L44.0671 107.384C43.9996 107.585 43.8228 107.75 43.5502 107.83C43.0039 107.99 42.2771 107.75 41.9302 107.293C41.7557 107.064 41.7105 106.823 41.7779 106.619L61.1534 48.4258C61.0856 48.6286 61.1304 48.8691 61.305 49.0987C61.6522 49.5564 62.379 49.7969 62.9249 49.6363C63.1979 49.5564 63.3755 49.3917 63.4422 49.1911Z" fill="#2A515A"/>
<path d="M63.2903 48.5191C63.6371 48.9764 63.4735 49.4767 62.925 49.6384C62.3791 49.799 61.6522 49.5585 61.305 49.1008C60.9582 48.6435 61.1222 48.144 61.6696 47.9834C62.2177 47.8232 62.9431 48.0618 63.2903 48.5191Z" fill="#23464E"/>
<path d="M20.4126 105.933L0.0162107 94.0508L0 97.4774L20.3968 109.36L20.399 108.692L20.4051 108.696L20.4126 105.933Z" fill="#537276"/>
<path d="M43.51 105.267C43.3679 105.185 43.1719 105.196 42.9551 105.321C42.523 105.57 42.1762 106.174 42.1777 106.668C42.1781 106.915 42.2652 107.089 42.4058 107.17L43.5443 107.854C43.4037 107.773 43.3166 107.598 43.3159 107.351C43.3147 106.857 43.6616 106.253 44.0936 106.005C44.31 105.88 44.5064 105.869 44.6482 105.95L43.51 105.267Z" fill="#AEAEAE"/>
<path d="M44.0942 106.005C44.5239 105.756 44.8753 105.957 44.8768 106.451C44.8783 106.947 44.5292 107.552 44.0991 107.8C43.667 108.049 43.3183 107.848 43.3164 107.351C43.3153 106.857 43.6621 106.254 44.0942 106.005Z" fill="#D1D2D2"/>
<path d="M67.5306 54.6855C67.4676 54.543 67.3813 54.4069 67.2802 54.2923C67.195 54.195 67.0993 54.112 66.9982 54.0547C66.8184 53.9503 66.6559 53.9409 66.5383 54.0095L59.6309 53.614C59.7486 53.5454 59.911 53.5556 60.0905 53.6593C60.1919 53.7181 60.2873 53.7995 60.3729 53.8968C60.4739 54.0121 60.5602 54.1475 60.6224 54.29C60.6937 54.451 60.7348 54.6191 60.7344 54.7748C60.734 54.9784 60.6922 55.4677 60.5764 55.536L67.4838 55.9314C67.5999 55.8628 67.6719 55.7196 67.6727 55.5167C67.6727 55.361 67.6015 54.8457 67.5306 54.6855Z" fill="#2A515A"/>
<path d="M47.8606 44.1578C47.7976 44.0153 47.7117 43.8792 47.6106 43.7646C47.5254 43.6673 47.4301 43.5844 47.3283 43.5271C47.1488 43.4227 46.9859 43.4132 46.8683 43.4818L39.9609 43.0864C40.0782 43.0185 40.2411 43.0279 40.4205 43.1316C40.5219 43.1904 40.6173 43.2722 40.7025 43.3695C40.8039 43.4845 40.8902 43.6198 40.9524 43.7627C41.0237 43.9233 41.0644 44.0915 41.0644 44.2472C41.0644 44.4511 41.0222 44.9408 40.9065 45.0083L47.8138 45.4038C47.9299 45.3352 48.002 45.1919 48.0023 44.9891C48.0031 44.8334 47.9315 44.3188 47.8606 44.1578Z" fill="#2A515A"/>
<path d="M26.6299 107.336L1.9082 93.2192L8.48079 74.4258L33.2874 88.374L26.6299 107.336Z" fill="#EDAF3D"/>
<path d="M13.9097 100.104L11.9395 98.9759L18.5694 80.0547L20.6078 81.0647L13.9097 100.104Z" fill="#AF7F2C"/>
<path d="M16.2393 101.432L14.2695 100.297L20.893 81.3047L22.8968 82.47L16.2393 101.432Z" fill="#AF7F2C"/>
<path d="M33.285 88.3736L8.47852 74.4254L23.9622 71.9531L48.7473 86.1275L33.285 88.3736Z" fill="#D49129"/>
<path d="M48.7486 86.1289L42.1126 105.516L26.6289 107.337L33.2863 88.375L48.7486 86.1289Z" fill="#AF7F2C"/>
<path d="M20.5455 81.2105L18.541 80.0942L28.8097 78.4844L30.9993 79.7108L20.5455 81.2105Z" fill="#9A6C29"/>
<path d="M22.8754 82.5223L20.875 81.4003L31.3028 79.918L33.2564 81.0199L22.8754 82.5223Z" fill="#9A6C29"/>
<path opacity="0.15" d="M33.9679 83.9294L14.0703 75.6992L14.2697 77.0492L32.8818 87.4902L45.7492 85.9087L46.6506 84.8787L33.9679 83.9294Z" fill="#010101"/>
<path d="M33.2588 86.4528L14.0703 75.6985L19.7551 59.4453L39.0167 70.0533L33.2588 86.4528Z" fill="#FBCA0D"/>
<path d="M39.0175 70.0549L19.7559 59.4469L33.1473 57.3086L52.3901 68.1118L39.0175 70.0549Z" fill="#FFD550"/>
<path d="M52.3902 68.1094L46.6516 84.8772L33.2598 86.4519L39.0177 70.0524L52.3902 68.1094Z" fill="#DCA927"/>
<path opacity="0.15" d="M43.8535 63.5713L24.1353 58.7031L23.3496 58.8603L42.1683 69.5731L52.3898 68.1123L51.8447 67.7824L43.8535 63.5713Z" fill="#010101"/>
<path d="M42.1065 68.7595L22.918 58.0049L25.0623 51.6445L44.3244 62.2521L42.1065 68.7595Z" fill="#EDAF3D"/>
<path d="M44.3245 62.2491L25.0625 51.6415L35.4616 50.0234L54.7048 60.827L44.3245 62.2491Z" fill="#D49129"/>
<path d="M34.3202 56.7389L32.2773 55.6106L42.5463 54L44.736 55.2257L34.3202 56.7389Z" fill="#9A6C29"/>
<path d="M36.6783 58.0414L34.6289 56.9176L45.1057 55.4375L47.0593 56.5394L36.6783 58.0414Z" fill="#9A6C29"/>
<path d="M54.7037 60.8281L52.5051 67.7023L42.1055 68.7575L44.3234 62.2501L54.7037 60.8281Z" fill="#AF7F2C"/>
<path d="M32.0766 63.1279L30.123 62.0316L32.2761 55.6094L34.319 56.7377L32.0766 63.1279Z" fill="#AF7F2C"/>
<path d="M34.386 64.4202L32.4102 63.3285L34.63 56.918L36.6793 58.0343L34.386 64.4202Z" fill="#AF7F2C"/>
<path d="M21.9567 105.699L20.4159 105.937L0.0195312 94.0546L1.56032 93.8164L21.9567 105.699Z" fill="#B2C8CE"/>
<path d="M21.9588 105.699L20.4078 105.939L20.3984 109.36L21.9463 109.133L21.9588 105.699Z" fill="#B2C8CE"/>
<path d="M67.0182 55.4013C66.1726 55.7361 65.1547 54.8252 64.8482 54.0516C64.7366 53.7779 63.0809 54.2582 62.3352 54.0946C61.5431 53.9333 61.6554 53.1363 61.8013 52.9621C61.9163 52.8207 64.5206 52.5991 65.1709 52.5184C67.3489 52.2541 67.7436 53.0134 68.0448 53.7877C68.3653 54.5628 67.8601 55.0541 67.0182 55.4013Z" fill="#FEE7D9"/>
<path d="M64.9582 57.7559C67.0957 57.8608 68.4484 56.3731 68.9687 54.9899L67.6903 54.0587L65.0886 54.0195C65.0886 54.0195 65.0599 54.2634 64.7889 54.7984C64.5619 54.9895 64.2969 55.1675 63.9384 55.1924C63.1765 55.2451 62.8839 55.322 62.3516 55.7933C62.9736 56.7912 63.9044 57.4449 64.9582 57.7559Z" fill="#FEE7D9"/>
<path d="M47.2744 42.729C47.0685 42.6897 46.8604 42.6634 46.6516 42.6445L45.5707 42.9167L45.156 43.1689L42.2852 45.1259C42.3338 45.1794 42.307 45.527 42.3372 45.6051C42.6298 46.3512 43.967 46.7877 44.6516 47.0286C45.8961 47.4678 46.4815 47.4437 47.0535 47.0098L47.9183 46.3278C48.4812 45.912 48.9256 45.4814 49.2514 45.1259C48.868 44.0609 48.5513 42.9672 47.2744 42.729Z" fill="#FFF1E9"/>
</g>
</svg>
