<svg width="48" height="48" viewBox="0 0 48 48" fill="none" xmlns="http://www.w3.org/2000/svg">
<path d="M14.2754 6.77006C14.2754 8.89672 14.3502 9.15339 15.0234 9.15339C15.6966 9.15339 15.7714 8.89672 15.7714 6.77006C15.7714 4.64339 15.6966 4.38672 15.0234 4.38672C14.3502 4.38672 14.2754 4.64339 14.2754 6.77006Z" fill="white"/>
<path d="M32.2285 6.77006C32.2285 8.89672 32.3033 9.15339 32.9765 9.15339C33.6497 9.15339 33.7245 8.89672 33.7245 6.77006C33.7245 4.64339 33.6497 4.38672 32.9765 4.38672C32.3033 4.38672 32.2285 4.64339 32.2285 6.77006Z" fill="white"/>
<path d="M4.29064 7.46594L3.24343 8.34594L3.13124 18.2826C3.01903 28.0726 3.01903 28.2192 3.80444 28.2192C4.51504 28.2192 4.55243 28.0359 4.55243 21.8026V15.3859H24.0004H43.4485V22.7926C43.4485 26.8992 43.2988 30.4559 43.1118 30.7493C42.85 31.1159 41.7281 31.3726 39.5588 31.4826C35.2204 31.7759 34.7716 32.2159 34.5098 36.4326C34.3976 38.1193 34.1732 39.6226 34.0237 39.7693C33.874 39.9159 33.0138 40.1359 32.0415 40.2093C30.6576 40.3926 30.3584 40.5392 30.3584 41.1626C30.3584 41.8226 30.5454 41.8592 32.3406 41.6759C34.248 41.4192 34.3602 41.3826 39.6336 36.1759L44.9819 30.8959L44.8697 19.6393L44.7574 8.34594L43.7103 7.46594C42.7379 6.65927 42.3264 6.58594 38.923 6.58594H35.2204V7.97927C35.2204 9.6293 34.3602 10.6192 32.9016 10.6192C31.63 10.6192 30.7324 9.51927 30.7324 7.94261V6.58594H24.0004H17.2684V7.97927C17.2684 9.6293 16.4082 10.6192 14.9496 10.6192C13.678 10.6192 12.7804 9.51927 12.7804 7.94261V6.58594H9.07783C5.67443 6.58594 5.26303 6.65927 4.29064 7.46594Z" fill="white"/>
<path d="M3.69177 29.9442C3.24297 30.3475 3.39257 41.4209 3.80397 41.4209C4.02837 41.4209 4.66417 40.9075 5.26257 40.2475C6.72117 38.6341 8.77817 38.6341 10.1994 40.2842L11.1344 41.4209H15.5102H19.886V36.1409C19.886 33.2442 19.7737 30.6042 19.6616 30.2741C19.4746 29.7608 18.39 29.6875 11.6953 29.6875C7.43177 29.6875 3.80397 29.7975 3.69177 29.9442Z" fill="white"/>
<path d="M21.3828 36.5429V41.6029L22.2431 40.6129C23.4772 39.1096 24.8984 38.7063 26.4318 39.4395C27.1424 39.7696 27.8157 40.3195 27.9278 40.7229C28.414 42.1529 28.8628 41.3463 28.8628 39.0362V36.6529H26.1326C24.5244 36.6529 23.2155 36.4696 22.9537 36.2129C22.6919 35.9562 22.5049 34.8196 22.5049 33.6462C22.5049 31.9962 22.3926 31.5195 21.9438 31.5195C21.4577 31.5195 21.3828 32.3262 21.3828 36.5429Z" fill="white"/>
<path d="M24 33.3568V35.1901H26.057C27.179 35.1901 28.114 35.1168 28.114 35.0067C28.114 34.9334 27.74 34.09 27.2912 33.1734C26.5806 31.7068 26.3188 31.5234 25.2342 31.5234C24 31.5234 24 31.5234 24 33.3568Z" fill="white"/>
<path d="M6.90888 40.6883C5.30067 41.3117 5.41287 43.4384 7.09587 43.8784C8.36747 44.1717 9.22767 43.585 9.22767 42.3383C9.22767 41.0917 8.06827 40.2483 6.90888 40.6883Z" fill="white"/>
<path d="M24.0759 40.9079C23.1783 41.5312 22.9913 42.8512 23.7019 43.5479C24.4125 44.2445 26.1703 44.0979 26.6191 43.2912C27.1427 42.2646 27.1053 41.8979 26.2451 41.0546C25.3475 40.1746 25.1605 40.1746 24.0759 40.9079Z" fill="white"/>
</svg>
