<svg width="48" height="27" viewBox="0 0 48 27" fill="none" xmlns="http://www.w3.org/2000/svg">
<path d="M0 8.98334V17.9667H16.3625H32.725V8.98334V0H16.3625H0V8.98334ZM31.042 8.8V16.1334H16.269H1.496V8.8V1.46673H16.269H31.042V8.8Z" fill="white"/>
<path d="M1.87109 8.79862V15.7653H16.2701H30.6691V8.79862V1.83203H16.2701H1.87109V8.79862Z" fill="white"/>
<path d="M34.1843 12.4116L34.1282 19.3417L19.0186 19.3967L3.92773 19.4334V20.9917V22.55H5.61073H7.29373V23.2283C7.29373 25.4833 9.78082 27.2433 12.0248 26.5833C13.4834 26.1616 14.7737 24.4567 14.7737 22.9534C14.7737 22.5683 14.8298 22.55 16.6438 22.55H18.5138V23.2833C18.5138 25.1167 20.2528 26.7666 22.1602 26.7666C24.0676 26.7666 25.8067 25.1167 25.8067 23.2833V22.55H30.2947H34.7827V22.9534C34.7827 24.42 35.9047 25.9783 37.3259 26.51C39.5512 27.335 41.9822 25.8133 42.2254 23.4483L42.3189 22.55H45.0865H47.8728V17.71V12.8883L46.2084 9.23995L44.5442 5.59167L39.3829 5.53671L34.2218 5.5L34.1843 12.4116ZM44.3384 10.0833C44.9368 11.44 45.4418 12.6133 45.4418 12.705C45.4418 12.7783 43.4408 12.815 41.0098 12.7967L36.5593 12.7417L36.5031 10.3767C36.4845 9.05671 36.5031 7.88334 36.5405 7.75497C36.6153 7.55337 37.3446 7.51666 39.9439 7.55336L43.2351 7.60833L44.3384 10.0833ZM11.9688 22.0916C13.0346 23.1917 11.9688 24.86 10.5101 24.365C9.51903 24.035 9.23853 22.825 10.0053 22.0916C10.6036 21.4866 11.389 21.4866 11.9688 22.0916ZM23.0765 22.0183C23.9181 22.66 23.6936 23.9616 22.6465 24.365C21.2066 24.97 20.0097 22.9716 21.2439 22.0183C21.5244 21.7984 21.9359 21.6334 22.1602 21.6334C22.3847 21.6334 22.796 21.7984 23.0765 22.0183ZM39.5512 22.0916C40.3179 22.825 40.0374 24.035 39.0463 24.365C37.5877 24.86 36.5218 23.1917 37.5877 22.0916C38.1674 21.4866 38.9528 21.4866 39.5512 22.0916Z" fill="white"/>
</svg>
